<svg width="86" height="91" viewBox="0 0 86 91" fill="none" xmlns="http://www.w3.org/2000/svg">
<path d="M0.71875 45.4906C0.71875 20.7934 19.4334 0.767578 42.5046 0.767578C65.5939 0.767578 84.2996 20.7934 84.2996 45.4906C84.2996 70.1879 65.5939 90.2137 42.5046 90.2137C19.4334 90.2137 0.71875 70.1879 0.71875 45.4906Z" fill="#FFDD00"/>
<path d="M9.24742 66.4782L9.11128 66.5559L7.72266 63.8075L7.8588 63.7298L7.94048 63.9046C8.01309 64.0503 8.10385 64.1668 8.20368 64.2348C8.26721 64.2834 8.35798 64.3028 8.45781 64.2834C8.52134 64.2737 8.68471 64.2057 8.92976 64.0503L12.1608 62.1856C12.4149 62.0399 12.5602 61.9331 12.6146 61.8748C12.66 61.8068 12.6872 61.7194 12.6872 61.6029C12.6872 61.4863 12.6509 61.3601 12.5783 61.2144L12.4966 61.0396L12.6328 60.9619L14.0214 63.7104L13.8853 63.7881L13.8036 63.6132C13.731 63.4579 13.6311 63.351 13.5404 63.283C13.4768 63.2345 13.3861 63.2151 13.2862 63.2248C13.2136 63.2345 13.0593 63.3025 12.8143 63.4481L9.58323 65.3225C9.32911 65.4682 9.18389 65.575 9.12943 65.643C9.08405 65.711 9.05683 65.7984 9.05683 65.9149C9.05683 66.0218 9.09313 66.1578 9.16574 66.3034L9.24742 66.4782ZM14.7838 61.4961C14.8655 61.6515 14.8745 61.8166 14.8382 61.9914C14.7838 62.1662 14.693 62.2924 14.5387 62.3798C14.3935 62.4672 14.2392 62.477 14.0759 62.4284C13.9125 62.3798 13.7945 62.273 13.7128 62.1176C13.6311 61.9525 13.622 61.7971 13.6674 61.6223C13.7128 61.4475 13.8126 61.3213 13.9579 61.2338C14.1031 61.1464 14.2574 61.127 14.4207 61.1756C14.5841 61.2338 14.7021 61.3407 14.7838 61.4961Z" fill="black"/>
<path d="M17.1717 68.2065L15.7104 69.4496L15.6106 69.3039C15.9373 68.9349 16.1188 68.527 16.1551 68.0705C16.1914 67.6238 16.1007 67.245 15.8829 66.9245C15.7104 66.6914 15.5198 66.5554 15.302 66.5069C15.0842 66.468 14.8936 66.5069 14.7393 66.6331C14.6485 66.7108 14.5759 66.808 14.5305 66.9148C14.4761 67.0702 14.4579 67.2644 14.4579 67.4975C14.467 67.6626 14.5124 68.0219 14.6122 68.5755C14.7574 69.3428 14.7756 69.9158 14.6939 70.2945C14.6031 70.6733 14.4126 70.9841 14.113 71.2171C13.7409 71.5182 13.3144 71.625 12.8243 71.5279C12.3341 71.4308 11.9257 71.1492 11.5808 70.6733C11.4719 70.5276 11.3902 70.3722 11.3176 70.2071C11.2541 70.0517 11.1906 69.8381 11.127 69.5758C11.0907 69.4302 11.0454 69.3136 10.9909 69.2456C10.9455 69.1874 10.882 69.1388 10.7912 69.1097C10.6914 69.0805 10.5916 69.0805 10.4736 69.1097L10.3828 68.9834L12.0619 67.6238L12.1526 67.75C11.7533 68.2356 11.5355 68.7309 11.4901 69.2262C11.4538 69.7215 11.5445 70.1391 11.7896 70.4693C11.9802 70.7315 12.198 70.8966 12.434 70.9452C12.679 70.9938 12.8878 70.9452 13.0693 70.7995C13.1782 70.7121 13.2508 70.5956 13.3144 70.4596C13.3688 70.3236 13.396 70.1488 13.396 69.9546C13.4051 69.7701 13.3688 69.4593 13.2871 69.032C13.1782 68.4396 13.1238 67.9831 13.1328 67.6917C13.1419 67.3907 13.1873 67.1187 13.2962 66.8759C13.396 66.6331 13.5503 66.4195 13.7591 66.2641C14.113 65.9727 14.5215 65.8756 14.9662 65.9436C15.4109 66.0213 15.783 66.2738 16.0825 66.6817C16.1914 66.8371 16.2822 67.0022 16.3548 67.177C16.4093 67.3033 16.4456 67.4781 16.491 67.7015C16.5363 67.9151 16.5726 68.0608 16.618 68.1191C16.6634 68.187 16.7088 68.2162 16.7723 68.2259C16.8268 68.2356 16.9357 68.1968 17.09 68.1191L17.1717 68.2065Z" fill="black"/>
<path d="M22.2059 73.6548L21.1985 74.8591L21.0805 74.7523C21.2529 74.4124 21.3437 74.1307 21.3618 73.9462C21.3891 73.7423 21.3527 73.548 21.2801 73.3441C21.2348 73.2275 21.1168 73.0818 20.9262 72.8973L20.6085 72.5963L17.7314 76.0245C17.5408 76.2479 17.4319 76.4033 17.4047 76.481C17.3865 76.5587 17.3865 76.6558 17.4138 76.7529C17.4501 76.8695 17.5227 76.9763 17.6407 77.0928L17.7768 77.2288L17.677 77.3453L15.5078 75.2476L15.6076 75.131L15.7438 75.2573C15.8618 75.3739 15.9798 75.4418 16.0887 75.471C16.1704 75.4904 16.252 75.4807 16.3428 75.4321C16.4154 75.403 16.5425 75.2767 16.724 75.0534L19.6102 71.6251L19.3107 71.3337C19.0293 71.0618 18.7752 70.9355 18.5392 70.9355C18.2125 70.9452 17.8857 71.0812 17.5681 71.3628L17.4501 71.2463L18.4666 70.0518L22.2059 73.6548Z" fill="black"/>
<path d="M23.8069 79.8321L22.1187 78.7444L21.6377 79.1037C21.4743 79.23 21.3654 79.3465 21.311 79.4631C21.2293 79.6088 21.2293 79.7447 21.2928 79.8807C21.3382 79.9681 21.4743 80.0943 21.7103 80.2692L21.6286 80.4051L20.0312 79.3854L20.1129 79.2494C20.3035 79.3271 20.485 79.3465 20.6666 79.2883C20.8481 79.23 21.1294 79.0649 21.5106 78.7832L25.5131 75.792L25.5858 75.8308L24.9504 81.1529C24.8869 81.658 24.8869 81.9979 24.9323 82.163C24.9686 82.2892 25.0593 82.4155 25.1955 82.5223L25.1138 82.6583L22.7903 81.1724L22.872 81.0364L22.9719 81.0947C23.1625 81.2112 23.2986 81.2695 23.4075 81.2598C23.4801 81.2501 23.5346 81.2112 23.58 81.1335C23.6072 81.0849 23.6253 81.0364 23.6344 80.9781C23.6435 80.949 23.6526 80.8325 23.6889 80.6285L23.8069 79.8321ZM23.8432 79.4728L24.1245 77.2488L22.4001 78.5404L23.8432 79.4728Z" fill="black"/>
<path d="M31.1395 78.8321L32.6642 83.2801L33.4266 80.8425C33.5355 80.5026 33.5537 80.25 33.4992 80.1044C33.4266 79.8907 33.236 79.745 32.9456 79.6479L32.991 79.4925L34.7426 80.1141L34.6973 80.2695C34.4613 80.2209 34.2979 80.2112 34.2072 80.2306C34.1164 80.25 34.0347 80.3083 33.953 80.4054C33.8804 80.5025 33.7987 80.6774 33.7171 80.9396L32.2558 85.6693L32.1197 85.6207L30.005 79.6188L28.8796 83.2219C28.7797 83.5424 28.7797 83.7949 28.8796 83.96C28.9794 84.1251 29.1246 84.2416 29.3061 84.2999L29.4332 84.3387L29.3878 84.4941L27.5 83.824L27.5545 83.6686C27.8449 83.7754 28.0627 83.7851 28.217 83.6977C28.3713 83.6103 28.4893 83.4161 28.5891 83.115L29.8325 79.104L29.769 78.9098C29.7055 78.7156 29.6329 78.5893 29.5603 78.5116C29.4876 78.4339 29.3787 78.3659 29.2154 78.298L29.2698 78.1426L31.1395 78.8321Z" fill="black"/>
<path d="M39.5356 83.6384C40.0439 83.8327 40.3978 84.0366 40.5975 84.2503C40.8789 84.5514 40.9968 84.9107 40.9515 85.338C40.9061 85.7751 40.6973 86.1344 40.3343 86.3869C39.8896 86.688 39.2724 86.8045 38.4828 86.7074L35.6602 86.3772L35.6783 86.2121C35.9415 86.2412 36.114 86.2412 36.2138 86.1927C36.3136 86.1538 36.3862 86.0956 36.4225 86.0179C36.4679 85.9402 36.5042 85.7362 36.5405 85.4157L36.9308 81.5601C36.9671 81.2396 36.9671 81.0357 36.9399 80.9483C36.9126 80.8609 36.8582 80.7832 36.7584 80.7249C36.6767 80.6569 36.5042 80.6181 36.2501 80.5889L36.2592 80.4238L38.9275 80.7346C39.5628 80.8026 40.0076 80.9191 40.2617 81.0745C40.5158 81.2299 40.7064 81.4339 40.8335 81.6961C40.9605 81.9583 41.015 82.2205 40.9878 82.4925C40.9605 82.7838 40.8335 83.0169 40.6156 83.2208C40.3978 83.4248 40.0348 83.5608 39.5356 83.6384ZM38.0199 83.687L37.8293 85.6002L37.8021 85.8139C37.7839 85.9693 37.8112 86.0956 37.8747 86.183C37.9473 86.2704 38.0471 86.3286 38.2014 86.3481C38.4193 86.3772 38.628 86.3481 38.8186 86.2607C39.0092 86.1733 39.1726 86.0373 39.2906 85.8625C39.4085 85.6779 39.4812 85.4643 39.4993 85.2215C39.5265 84.9398 39.4902 84.6873 39.3904 84.4543C39.2996 84.2115 39.1453 84.0463 38.9366 83.9298C38.746 83.8133 38.4465 83.7356 38.0199 83.687ZM38.0562 83.3471C38.4465 83.3957 38.7369 83.3762 38.9366 83.3082C39.1272 83.2403 39.2815 83.1237 39.3995 82.9586C39.5175 82.8032 39.581 82.5896 39.6173 82.3274C39.6445 82.0651 39.6173 81.8418 39.5356 81.6669C39.4539 81.4921 39.3269 81.3465 39.1544 81.2396C38.982 81.1328 38.7006 81.0551 38.3013 81.0065L38.0562 83.3471Z" fill="black"/>
<path d="M43.0572 81.0748L45.9252 80.764L45.9343 80.9291L45.7891 80.9388C45.5713 80.968 45.426 81.0068 45.3534 81.0651C45.2808 81.1234 45.2264 81.1913 45.1991 81.2884C45.181 81.3759 45.181 81.5895 45.2082 81.9294L45.4805 84.843C45.5259 85.3771 45.5985 85.7268 45.6893 85.8919C45.78 86.0473 45.9161 86.1832 46.0977 86.2803C46.2792 86.3775 46.5061 86.4066 46.7602 86.3775C47.0597 86.3386 47.3139 86.2415 47.5044 86.0764C47.7041 85.9016 47.8493 85.6879 47.931 85.4257C48.0127 85.1635 48.0218 84.707 47.9582 84.0758L47.7223 81.6575C47.7041 81.3953 47.6587 81.201 47.5952 81.0942C47.5317 80.9874 47.4591 80.9097 47.3683 80.8806C47.2412 80.8223 47.0597 80.8029 46.8419 80.8417L46.8237 80.6766L48.7479 80.4727L48.766 80.6378L48.648 80.6475C48.4937 80.6669 48.3667 80.7155 48.2668 80.7931C48.167 80.8708 48.1035 80.9777 48.0762 81.1233C48.049 81.2108 48.049 81.3953 48.0672 81.6381L48.2759 83.9009C48.3394 84.6002 48.3394 85.1052 48.2941 85.4257C48.2396 85.7462 48.0581 86.057 47.7404 86.3483C47.4318 86.6397 46.9871 86.8242 46.4153 86.8825C45.9343 86.931 45.5531 86.9019 45.2808 86.7951C44.9087 86.6494 44.6364 86.4357 44.4549 86.1541C44.2825 85.8724 44.1736 85.4937 44.1191 84.9984L43.8468 82.0848C43.8105 81.7352 43.7833 81.5312 43.7288 81.4535C43.6835 81.3759 43.6199 81.3176 43.5292 81.269C43.4384 81.2302 43.275 81.2205 43.0391 81.2496L43.0572 81.0748Z" fill="black"/>
<path d="M56.2595 82.0852L56.6679 84.1538L51.9484 85.7951L51.903 85.6397L52.0754 85.5815C52.2297 85.5232 52.3477 85.4552 52.4203 85.3678C52.4748 85.3095 52.5111 85.2221 52.5201 85.1153C52.5292 85.0376 52.4838 84.8531 52.4022 84.5715L51.2677 80.8227C51.1769 80.5313 51.1134 80.3565 51.0589 80.2885C51.0045 80.2303 50.9318 80.1914 50.8229 80.1623C50.7231 80.1428 50.596 80.1526 50.4417 80.2108L50.2693 80.2691L50.2148 80.1137L53.0556 79.1328L53.101 79.2882L52.8741 79.3659C52.7198 79.4145 52.6018 79.4922 52.5292 79.5796C52.4748 79.6378 52.4385 79.7252 52.4294 79.8321C52.4203 79.9098 52.4657 80.0943 52.5474 80.3759L53.6456 83.9985C53.7363 84.2898 53.8089 84.4646 53.8634 84.5423C53.9178 84.6006 53.9995 84.6491 54.0994 84.6589C54.172 84.6589 54.3353 84.6103 54.5895 84.5326L55.0251 84.3772C55.3065 84.2801 55.5243 84.1441 55.6877 83.9693C55.842 83.7945 55.9509 83.5711 56.0235 83.2895C56.087 83.0176 56.1142 82.6291 56.1052 82.1435L56.2595 82.0852Z" fill="black"/>
<path d="M61.0607 74.7432L63.5476 78.8318C63.7382 79.1426 63.8743 79.3271 63.9469 79.3951C64.0195 79.4631 64.1193 79.4825 64.2373 79.4825C64.3462 79.4825 64.5005 79.4243 64.673 79.298L64.7728 79.2203L64.8636 79.3563L62.3949 81.085L62.3132 80.949L62.4312 80.8616C62.6309 80.7256 62.767 80.5994 62.8124 80.4926C62.8669 80.3857 62.885 80.2692 62.8669 80.1721C62.8487 80.0653 62.7398 79.8516 62.5492 79.5408L60.9609 76.9477C60.8248 76.7147 60.7249 76.5787 60.6705 76.5301C60.6069 76.4816 60.5434 76.4622 60.4617 76.4622C60.38 76.4622 60.2983 76.4816 60.2257 76.5398C60.1077 76.6175 59.9898 76.7535 59.8718 76.9575L59.7266 76.87L60.9427 74.8306L61.0607 74.7432Z" fill="black"/>
<path d="M67.2517 77.5991L67.1791 77.5117C67.4423 77.1038 67.6238 76.6959 67.7237 76.3075C67.8235 75.919 67.8326 75.5402 67.7781 75.1712C67.7146 74.7924 67.5785 74.4331 67.3697 74.0737C67.3062 74.268 67.2336 74.4234 67.17 74.5302C67.0974 74.6467 67.0248 74.7536 66.925 74.8507C66.6073 75.1517 66.2443 75.2877 65.8359 75.2489C65.4184 75.21 65.0372 74.9769 64.6742 74.5593C64.4291 74.268 64.2567 73.9475 64.1568 73.5881C64.0661 73.2288 64.0661 72.8889 64.1659 72.5587C64.2657 72.2188 64.42 71.9371 64.6469 71.7235C64.892 71.4904 65.1824 71.3447 65.5273 71.267C65.8631 71.2087 66.2261 71.2573 66.5892 71.4127C66.9613 71.5681 67.2971 71.8303 67.5966 72.1799C67.9869 72.6558 68.2682 73.1997 68.4225 73.8309C68.5768 74.4622 68.5496 75.1032 68.359 75.7636C68.1684 76.4143 67.7963 77.0261 67.2517 77.5991ZM67.1882 73.7435C66.9976 73.4813 66.8252 73.2579 66.6709 73.0734C66.3351 72.6752 65.9811 72.3547 65.609 72.0925C65.3912 71.9468 65.2096 71.8788 65.0372 71.8886C64.9464 71.8886 64.8647 71.9274 64.774 72.0051C64.6742 72.1022 64.6378 72.2285 64.656 72.3742C64.6923 72.5781 64.8647 72.8597 65.1643 73.2191C65.6725 73.8212 66.0991 74.1805 66.4258 74.2777C66.6346 74.3456 66.8252 74.2971 66.9704 74.1514C67.0339 74.0834 67.1065 73.9475 67.1882 73.7435Z" fill="black"/>
<path d="M71.7247 72.9559L71.6339 72.8879C71.8427 72.4314 71.9607 72.0041 71.997 71.6059C72.0424 71.2077 71.997 70.829 71.879 70.4696C71.761 70.12 71.5795 69.7801 71.3163 69.4596C71.28 69.6636 71.2346 69.8189 71.1892 69.9452C71.1348 70.0715 71.0803 70.188 70.9896 70.3045C70.7354 70.6542 70.3905 70.8484 69.973 70.8775C69.5555 70.9164 69.1471 70.7513 68.7296 70.4017C68.4392 70.1589 68.2305 69.8675 68.0762 69.5373C67.9309 69.2071 67.8856 68.8672 67.9309 68.5176C67.9763 68.1679 68.0943 67.8669 68.2849 67.6046C68.4846 67.3327 68.7569 67.1385 69.0836 67.0219C69.4103 66.9054 69.7643 66.886 70.1455 66.9831C70.5358 67.0705 70.8988 67.2744 71.2528 67.5755C71.7156 67.964 72.0696 68.4593 72.3146 69.0517C72.5597 69.6538 72.6323 70.2948 72.5415 70.9747C72.4508 71.6351 72.1785 72.2955 71.7247 72.9559ZM71.0894 69.1682C70.8625 68.9449 70.6628 68.7506 70.4813 68.5953C70.091 68.2651 69.6917 67.9931 69.2742 67.8086C69.0473 67.7018 68.8476 67.6726 68.6752 67.7018C68.5844 67.7115 68.5118 67.7697 68.4392 67.8669C68.3575 67.9834 68.3394 68.1097 68.3757 68.2456C68.4301 68.4496 68.6479 68.7021 69.0019 69.0031C69.5918 69.5082 70.0638 69.7898 70.3996 69.8189C70.6265 69.8481 70.799 69.7801 70.9169 69.615C70.9896 69.5276 71.044 69.3722 71.0894 69.1682Z" fill="black"/>
<path d="M76.0722 66.4586L72.8048 62.6128L72.2331 63.7005C72.0152 64.1278 71.8972 64.4677 71.8882 64.7494C71.8791 64.9436 71.9517 65.1476 72.0969 65.3612L72.0152 65.4972L70.6992 64.2152L72.3329 61.1074L76.3808 65.8565L76.0722 66.4586Z" fill="black"/>
<path d="M12.0625 45.4914C12.0625 27.4954 25.6946 12.9082 42.5125 12.9082C59.3303 12.9082 72.9624 27.4954 72.9624 45.4914C72.9624 63.4875 59.3303 78.0747 42.5125 78.0747C25.6946 78.0747 12.0625 63.4875 12.0625 45.4914Z" fill="black"/>
<path d="M6.4796 46.1403C6.57944 45.5673 6.71558 45.1594 6.88802 44.9263C7.124 44.5864 7.44166 44.4019 7.841 44.3922C8.2585 44.3727 8.61246 44.5378 8.90289 44.8875C9.24778 45.3148 9.44745 45.9558 9.47468 46.8007L9.59267 49.8308L9.44745 49.8405C9.4293 49.5589 9.40207 49.3743 9.34762 49.2772C9.29316 49.1801 9.22963 49.1121 9.15702 49.083C9.08441 49.0441 8.88474 49.0344 8.58523 49.0441L4.96391 49.2092C4.6644 49.2189 4.47381 49.2481 4.4012 49.2966C4.32859 49.3355 4.26506 49.4132 4.21968 49.5103C4.1743 49.6171 4.16522 49.8016 4.1743 50.0736L4.02001 50.0833L3.9111 47.2183C3.88387 46.5385 3.92017 46.0432 4.02001 45.7615C4.11984 45.4605 4.28321 45.2371 4.50104 45.0623C4.71886 44.8875 4.95483 44.7903 5.20896 44.7806C5.48124 44.7709 5.7263 44.8583 5.94412 45.0623C6.16194 45.2565 6.33439 45.6158 6.4796 46.1403ZM6.43422 47.7524C6.41607 47.3348 6.37069 47.0338 6.27085 46.8298C6.17102 46.6356 6.04395 46.4899 5.88059 46.3831C5.71722 46.2957 5.50847 46.2374 5.26342 46.2568C5.01837 46.2763 4.81869 46.3345 4.6644 46.4414C4.51011 46.5482 4.4012 46.7036 4.32859 46.8978C4.24691 47.1018 4.21968 47.4125 4.23783 47.8399L6.43422 47.7524ZM6.76096 47.733L8.54893 47.6553H8.7486C8.90289 47.6456 9.0118 47.6068 9.08441 47.5194C9.15702 47.432 9.18425 47.3057 9.18425 47.1503C9.17517 46.9075 9.11164 46.7036 9.0118 46.5093C8.91197 46.3151 8.75768 46.1694 8.56708 46.0723C8.37648 45.9752 8.16774 45.9363 7.94084 45.946C7.67763 45.9558 7.45073 46.0334 7.25106 46.1694C7.04231 46.3054 6.90617 46.4899 6.83357 46.723C6.76096 46.9464 6.73373 47.2863 6.76096 47.733Z" fill="black"/>
<path d="M4.5001 40.2945L6.76002 40.6344L6.77817 40.5178C6.82355 40.1391 6.75094 39.8574 6.55127 39.6535C6.3516 39.4398 6.04302 39.2941 5.62552 39.1776L5.65275 39.0222L8.54799 39.469L8.52076 39.6341C8.2031 39.6243 7.93082 39.6535 7.72207 39.7409C7.51333 39.8186 7.34996 39.9351 7.26827 40.0711C7.16844 40.2071 7.11398 40.4207 7.07768 40.7024L8.63875 40.9452C8.94733 40.9937 9.12885 41.0034 9.20146 40.984C9.26499 40.9646 9.3376 40.9257 9.38298 40.8578C9.43744 40.7898 9.48281 40.6732 9.50097 40.4984L9.55542 40.1391C9.62803 39.5855 9.5645 39.129 9.3739 38.76C9.18331 38.3909 8.8475 38.0899 8.38462 37.8762L8.40277 37.7111L10.1272 38.2453L9.44651 43.3634L9.29222 43.344L9.31945 43.1497C9.34667 42.9749 9.32852 42.839 9.29222 42.7224C9.26499 42.6447 9.21054 42.5767 9.11978 42.5185C9.05624 42.4699 8.89288 42.4311 8.61152 42.3922L4.97205 41.8289C4.727 41.7901 4.56363 41.7804 4.50917 41.7804C4.40934 41.7901 4.32765 41.8386 4.26412 41.9066C4.17336 42.0037 4.1189 42.1494 4.09168 42.334L4.06445 42.5379L3.91016 42.5185L4.5727 37.5654L6.20638 37.8179L6.18823 37.983C5.77073 38.0122 5.47123 38.0802 5.28063 38.2064C5.09004 38.3327 4.92667 38.5269 4.80868 38.7988C4.73607 38.9542 4.67254 39.2553 4.60901 39.702L4.5001 40.2945Z" fill="black"/>
<path d="M6.92411 29.0869L7.06933 29.1355C7.03302 29.3297 7.03302 29.4851 7.08748 29.6211C7.15101 29.8056 7.38699 30.1261 7.76818 30.6117L9.29294 32.5346L10.5727 33.0008C10.8449 33.0979 11.0174 33.1465 11.0991 33.1368C11.1808 33.127 11.2534 33.0882 11.326 33.0202C11.4077 32.9522 11.4712 32.8454 11.5166 32.69L11.6164 32.3695L11.7616 32.4278L10.7451 35.6036L10.5999 35.555L10.6997 35.2539C10.7542 35.0888 10.7723 34.9529 10.7451 34.8363C10.736 34.7489 10.6906 34.6712 10.618 34.5935C10.5636 34.545 10.4093 34.4673 10.137 34.3702L9.07512 33.9817L6.38863 34.477C5.85314 34.5838 5.53548 34.6712 5.41749 34.7586C5.30858 34.8363 5.20875 34.9723 5.15429 35.1374L5 35.0888L5.87129 32.3792L6.01651 32.4375L5.98021 32.5541C5.92575 32.7192 5.91668 32.8357 5.93483 32.9231C5.96206 33.0105 5.99836 33.0493 6.04374 33.0785C6.14357 33.1173 6.40678 33.0882 6.86058 33.0008L8.93898 32.622L7.66834 31.0196C7.35976 30.6214 7.14194 30.4077 7.01487 30.3592C6.94226 30.33 6.87873 30.3495 6.79705 30.398C6.70629 30.466 6.60645 30.6311 6.51569 30.8739L6.37048 30.8156L6.92411 29.0869Z" fill="black"/>
<path d="M11.2337 25.3578L14.3558 24.8917C14.7915 24.8237 15.1091 24.7363 15.327 24.61C15.4722 24.5226 15.5902 24.4061 15.6718 24.2507L15.808 24.3381L14.3195 27.0186L14.1925 26.9409C14.2651 26.7563 14.3104 26.6398 14.3014 26.5621C14.2923 26.4844 14.256 26.4358 14.2106 26.4067C14.1199 26.3484 13.8657 26.3387 13.4573 26.397L11.4243 26.6981L11.4606 26.9797L12.7766 27.8149C13.0217 27.9703 13.1941 28.048 13.2667 28.0674C13.3484 28.0771 13.4301 28.048 13.5208 27.9897C13.6207 27.9315 13.7114 27.8052 13.8203 27.6207L13.9474 27.7081L12.5134 30.3012L12.3773 30.2137L12.468 30.0389C12.5497 29.8835 12.5951 29.7476 12.5951 29.631C12.5951 29.5533 12.5679 29.4659 12.5134 29.3688C12.468 29.3106 12.3319 29.2037 12.0868 29.0483L8.92839 27.0477C8.68333 26.8923 8.51996 26.8049 8.44736 26.7952C8.37475 26.7855 8.28399 26.8049 8.19323 26.8632C8.10247 26.9214 8.01171 27.0185 7.93002 27.1642L7.83019 27.339L7.70312 27.2516L9.11898 24.6877L9.24604 24.7654C9.15528 24.9402 9.10083 25.0859 9.10083 25.2122C9.10083 25.2898 9.11898 25.387 9.18251 25.4744C9.22789 25.5423 9.36403 25.6492 9.60909 25.8046L11.1066 26.7466L10.7164 23.9302C10.6619 23.5417 10.5802 23.2989 10.4531 23.2309C10.3624 23.1727 10.2626 23.1824 10.1536 23.2601C10.0992 23.2989 9.99935 23.4252 9.87229 23.6388L9.73615 23.5611L10.8525 21.5508L10.9796 21.6285C10.8888 21.8227 10.8434 21.9781 10.8343 22.1141C10.8253 22.25 10.8616 22.59 10.9342 23.1338L11.2337 25.3578Z" fill="black"/>
<path d="M13.6856 18.4711L15.3737 20.1027L15.4463 20.0153C15.6823 19.7336 15.7731 19.452 15.7096 19.1606C15.6551 18.879 15.4736 18.5682 15.1922 18.2186L15.2921 18.0923L17.4612 20.1901L17.3523 20.3163C17.0891 20.1124 16.8531 19.9861 16.6353 19.9181C16.4175 19.8599 16.2269 19.8599 16.0817 19.9181C15.9365 19.9764 15.7731 20.1124 15.5916 20.326L16.7624 21.4526C16.9893 21.676 17.1436 21.7925 17.2071 21.8217C17.2797 21.8508 17.3523 21.8508 17.4249 21.8314C17.5157 21.8022 17.6064 21.7343 17.7063 21.608L17.9332 21.3458C18.2781 20.9282 18.4687 20.5106 18.505 20.0832C18.5322 19.6656 18.4142 19.2189 18.1328 18.7624L18.2418 18.6459L19.3853 20.1221L16.1543 23.9583L16.0454 23.8514L16.1724 23.7058C16.2813 23.5795 16.3449 23.4533 16.3721 23.3367C16.3903 23.2493 16.3812 23.1619 16.3358 23.0648C16.3086 22.9871 16.1906 22.8511 15.9818 22.6569L13.25 20.025C13.0594 19.8405 12.9414 19.7336 12.8869 19.7045C12.7962 19.6559 12.7054 19.6462 12.6237 19.6656C12.4967 19.6948 12.3696 19.7822 12.2516 19.9279L12.1245 20.0735L12.0156 19.9667L15.1468 16.2471L16.3721 17.4319L16.2632 17.5582C15.9092 17.3348 15.6188 17.2183 15.3919 17.1988C15.165 17.1794 14.9381 17.2571 14.7021 17.4028C14.5569 17.4805 14.3482 17.7039 14.0668 18.0341L13.6856 18.4711Z" fill="black"/>
<path d="M18.4503 13.13L22.7342 14.3051L21.282 12.2559C21.0824 11.9646 20.9008 11.8092 20.7556 11.7703C20.5559 11.7218 20.329 11.7995 20.0931 12.0034L19.9932 11.8772L21.4635 10.6826L21.5634 10.8089C21.3909 10.9837 21.2911 11.1197 21.2548 11.2168C21.2185 11.3042 21.2094 11.4207 21.2457 11.5373C21.2729 11.6538 21.3728 11.8286 21.5271 12.0617L24.3316 16.0338L24.2226 16.1213L18.4049 14.5868L20.5469 17.6169C20.7375 17.8888 20.9281 18.0248 21.1096 18.0345C21.3002 18.0345 21.4635 17.9665 21.6178 17.85L21.7267 17.7723L21.8175 17.8985L20.2292 19.1805L20.1384 19.0542C20.3835 18.8503 20.5196 18.6658 20.5378 18.4812C20.565 18.2967 20.4833 18.083 20.3018 17.8305L17.9239 14.4605L17.7424 14.4217C17.5518 14.3731 17.4157 14.3537 17.3158 14.3731C17.216 14.3925 17.098 14.4508 16.9619 14.5576L16.8711 14.4314L18.4503 13.13Z" fill="black"/>
<path d="M27.7009 7.21484L28.3725 8.66191L28.2364 8.73961C28.0004 8.44826 27.8098 8.25401 27.6465 8.15689C27.4831 8.05978 27.3016 8.01122 27.0928 8.02093C26.9748 8.02093 26.8024 8.08891 26.5664 8.20546L26.1943 8.39969L28.1003 12.5369C28.2273 12.8089 28.3181 12.974 28.3816 13.0322C28.4361 13.0808 28.5268 13.1197 28.6267 13.1294C28.7356 13.1391 28.8536 13.1002 28.9988 13.0225L29.1712 12.9351L29.2348 13.0808L26.6118 14.4599L26.5483 14.3045L26.7207 14.2268C26.8568 14.1491 26.9658 14.052 27.0293 13.9549C27.0837 13.8869 27.1019 13.7898 27.0928 13.6829C27.0928 13.6052 27.0293 13.4304 26.9022 13.1585L24.9963 9.02125L24.6332 9.20578C24.2883 9.3903 24.0796 9.58454 23.9979 9.82733C23.889 10.1575 23.889 10.5266 24.0161 10.9539L23.8708 11.0219L23.1992 9.57483L27.7009 7.21484Z" fill="black"/>
<path d="M32.2383 5.52548L35.07 4.92335L35.0972 5.07873L34.952 5.10786C34.7433 5.14671 34.598 5.20498 34.5254 5.27296C34.4528 5.34094 34.4074 5.40893 34.3893 5.50605C34.3711 5.59346 34.3893 5.79741 34.4528 6.14703L34.9883 9.02173C35.0881 9.54617 35.188 9.88609 35.2878 10.0415C35.3967 10.1969 35.5419 10.3134 35.7416 10.3814C35.9322 10.4591 36.15 10.4688 36.4132 10.4202C36.7127 10.3523 36.9487 10.2357 37.1302 10.0415C37.3118 9.85695 37.4388 9.62387 37.4933 9.34223C37.5568 9.07029 37.5205 8.62356 37.4116 8.002L36.976 5.61288C36.9215 5.35066 36.867 5.16614 36.7944 5.06902C36.7218 4.9719 36.6401 4.90392 36.5585 4.87479C36.4223 4.83594 36.2499 4.83593 36.023 4.88449L35.9957 4.7291L37.8836 4.33092L37.9108 4.49602L37.8019 4.51544C37.6476 4.55428 37.5296 4.61256 37.4388 4.69996C37.3481 4.78737 37.2936 4.89421 37.2664 5.03988C37.2482 5.14671 37.2573 5.31182 37.3027 5.5449L37.7202 7.76891C37.8472 8.46816 37.8926 8.97319 37.8654 9.29368C37.8382 9.61417 37.6839 9.94437 37.4025 10.2649C37.1212 10.5951 36.6946 10.8184 36.1319 10.9447C35.6509 11.0418 35.2787 11.0515 34.9883 10.9738C34.598 10.867 34.3076 10.6825 34.1079 10.4202C33.9083 10.158 33.763 9.78898 33.6814 9.30338L33.1459 6.42867C33.0823 6.08876 33.0279 5.88481 32.9734 5.80711C32.9281 5.73913 32.8464 5.68087 32.7556 5.65174C32.6649 5.6226 32.5015 5.63231 32.2655 5.68087L32.2383 5.52548ZM33.9446 3.35974C34.0989 3.32089 34.235 3.35974 34.3621 3.44714C34.4891 3.54426 34.5617 3.6608 34.589 3.8259C34.6162 3.98129 34.589 4.12697 34.5073 4.26293C34.4165 4.3989 34.2985 4.47659 34.1624 4.50573C34.0081 4.54458 33.872 4.51544 33.7449 4.42803C33.6178 4.34063 33.5452 4.21437 33.5089 4.05898C33.4817 3.90359 33.5089 3.75791 33.5906 3.62195C33.6904 3.47627 33.7994 3.38887 33.9446 3.35974ZM35.4603 3.03925C35.6146 3.01011 35.7507 3.03924 35.8778 3.12665C36.0048 3.21406 36.0774 3.34032 36.1047 3.4957C36.1319 3.65109 36.1047 3.79677 36.0139 3.93273C35.9322 4.0687 35.8142 4.14639 35.669 4.18524C35.5238 4.21437 35.3877 4.18524 35.2606 4.09783C35.1335 4.01043 35.0518 3.88417 35.0246 3.72878C34.9974 3.57339 35.0246 3.42772 35.1063 3.29175C35.1971 3.15578 35.315 3.06838 35.4603 3.03925Z" fill="black"/>
<path d="M41.6764 4.1377L44.4264 7.85733L44.4355 5.2837C44.4355 4.93407 44.3901 4.69127 44.2903 4.56502C44.1632 4.39021 43.9454 4.31252 43.6277 4.31252V4.14742L45.4792 4.15712V4.32222C45.2433 4.35136 45.0799 4.39021 45.0073 4.44848C44.9256 4.49704 44.8621 4.58444 44.8167 4.70098C44.7713 4.81753 44.7441 5.02148 44.7441 5.29341L44.7259 10.2756H44.5807L40.8142 5.29341L40.8051 9.09074C40.8051 9.44037 40.8777 9.67346 41.032 9.79C41.1772 9.90654 41.3406 9.97452 41.5312 9.97452H41.6583V10.1396H39.6797V9.97452C39.9883 9.97452 40.197 9.90654 40.315 9.77057C40.433 9.64432 40.4965 9.41123 40.5056 9.09074L40.5238 4.87581L40.3967 4.70098C40.2787 4.54559 40.1698 4.43877 40.079 4.39021C39.9883 4.34165 39.8612 4.31251 39.6888 4.30279V4.1377H41.6764Z" fill="black"/>
<path d="M49.1556 10.6434L49.1284 10.8085L46.2422 10.3132L46.2694 10.1481L46.4509 10.1772C46.6143 10.2064 46.7504 10.1967 46.8503 10.1481C46.9229 10.1093 46.9955 10.0607 47.0409 9.96358C47.0863 9.8956 47.1316 9.71108 47.1679 9.41972L47.7488 5.52528C47.7942 5.23392 47.8123 5.03968 47.7942 4.96199C47.776 4.87458 47.7307 4.80659 47.6399 4.7289C47.5582 4.66091 47.4402 4.60265 47.2859 4.58322L47.1044 4.55409L47.1316 4.38899L50.0178 4.87458L49.9906 5.03968L49.8091 5.01055C49.6457 4.99112 49.5095 4.99112 49.4097 5.03968C49.3371 5.06882 49.2645 5.12709 49.2191 5.22421C49.1737 5.29219 49.1284 5.467 49.092 5.76807L48.5021 9.65281C48.4567 9.95388 48.4477 10.1481 48.4658 10.2258C48.484 10.3035 48.5293 10.3812 48.6201 10.4589C48.7018 10.5269 48.8198 10.5754 48.9741 10.6046L49.1556 10.6434ZM48.8288 2.92249C48.9922 2.95163 49.1193 3.03904 49.2191 3.18472C49.3189 3.32068 49.3552 3.48578 49.328 3.67031C49.3008 3.84512 49.2191 3.98109 49.083 4.09763C48.9468 4.20446 48.7925 4.24331 48.6292 4.21417C48.4749 4.18503 48.3387 4.09764 48.2389 3.95196C48.1391 3.80628 48.1118 3.65089 48.13 3.46637C48.1572 3.29156 48.2389 3.15558 48.375 3.04875C48.5021 2.9225 48.6564 2.89336 48.8288 2.92249Z" fill="black"/>
<path d="M57.2049 7.11809L57.1595 7.28319C56.9508 7.24434 56.7511 7.30262 56.5423 7.43858C56.3881 7.54541 56.1248 7.80763 55.7527 8.25438L52.6124 11.9643L52.4854 11.9255L52.0225 6.76846C51.968 6.14691 51.9136 5.77786 51.8682 5.65161C51.8228 5.53507 51.6958 5.41851 51.4961 5.32139L51.5415 5.16602L54.0918 6.04978L54.0464 6.19547L53.9648 6.17604C53.7379 6.09835 53.5654 6.0692 53.4656 6.10805C53.393 6.12747 53.3476 6.17604 53.3204 6.26344C53.3022 6.312 53.2931 6.37998 53.2931 6.45768C53.2931 6.53537 53.3113 6.73932 53.3385 7.07924L53.6199 10.3036L55.4351 8.14754C55.6529 7.88532 55.789 7.71051 55.8435 7.61339C55.907 7.51627 55.9524 7.43858 55.9706 7.36089C55.9978 7.27348 55.9978 7.19579 55.9706 7.11809C55.9524 7.0404 55.907 6.97241 55.8344 6.90443C55.7346 6.81702 55.5894 6.73933 55.4078 6.68106L55.4532 6.52567L57.2049 7.11809Z" fill="black"/>
<path d="M60.5256 9.29418L59.4274 11.4308L59.5272 11.4891C59.8449 11.6736 60.1172 11.693 60.3622 11.5667C60.6073 11.4405 60.8523 11.1783 61.0974 10.8092L61.2335 10.8869L59.8267 13.6354L59.6906 13.5577C59.8177 13.2372 59.8721 12.9652 59.8812 12.7127C59.8903 12.4699 59.8449 12.2757 59.7541 12.1397C59.6634 12.0038 59.5 11.8678 59.2731 11.7318L58.5198 13.2081C58.3746 13.4994 58.2929 13.6742 58.2838 13.7616C58.2747 13.8393 58.2929 13.917 58.3383 13.9947C58.3837 14.0724 58.4744 14.1501 58.6106 14.2375L58.901 14.4123C59.3639 14.6842 59.7904 14.7814 60.1807 14.7231C60.5801 14.6551 60.9522 14.4317 61.3061 14.0335L61.4423 14.1112L60.3622 15.6457L56.1328 13.1595L56.2054 13.0235L56.3688 13.1206C56.514 13.208 56.6411 13.2469 56.75 13.2372C56.8317 13.2372 56.9134 13.208 56.986 13.1401C57.0495 13.0915 57.1402 12.9361 57.2764 12.6739L59.0371 9.22619C59.1551 8.98339 59.2277 8.83771 59.2459 8.77944C59.264 8.67261 59.255 8.57549 59.2187 8.4978C59.1642 8.37155 59.0553 8.26472 58.8919 8.1676L58.7376 8.06077L58.8102 7.9248L62.9126 10.3333L62.1139 11.8872L61.9778 11.8095C62.1048 11.3919 62.1411 11.0617 62.1048 10.8092C62.0685 10.5761 61.9414 10.3528 61.7509 10.1391C61.6419 10.0129 61.3969 9.83804 61.0248 9.62438L60.5256 9.29418Z" fill="black"/>
<path d="M64.6386 15.6267L63.6402 16.9183C63.4496 17.1708 63.3407 17.336 63.3135 17.4234C63.2862 17.5108 63.3044 17.6079 63.3407 17.705C63.3861 17.8118 63.5041 17.9478 63.6947 18.1226L63.5948 18.2489L61.3984 16.2968L61.4983 16.1705C61.6979 16.3453 61.8432 16.4522 61.943 16.4716C62.0519 16.5007 62.1336 16.491 62.2153 16.4522C62.297 16.4036 62.424 16.2677 62.6237 16.0151L64.9381 13.0336C65.1287 12.7811 65.2376 12.6063 65.2557 12.5286C65.2739 12.4412 65.2648 12.3441 65.2285 12.2372C65.1831 12.1304 65.0651 11.9944 64.8655 11.8196L64.9653 11.6934L66.9529 13.4804C67.4794 13.9368 67.8242 14.3156 68.0148 14.6069C68.1964 14.8983 68.278 15.2188 68.269 15.5587C68.2599 15.8986 68.151 16.2094 67.9241 16.491C67.6609 16.8309 67.3341 17.0057 66.9348 17.0252C66.6807 17.0349 66.3993 16.9572 66.0726 16.8018L65.9001 19.2783C65.882 19.5988 65.882 19.8125 65.9001 19.9096C65.9364 20.0553 66 20.1815 66.1089 20.2981L66.009 20.4243L64.6567 19.22L64.9018 15.8889L64.6386 15.6267ZM66.3902 13.3735L64.8292 15.3839L65.0107 15.549C65.3102 15.8112 65.5462 15.9763 65.7368 16.0443C65.9274 16.1123 66.118 16.1122 66.3267 16.0346C66.5264 15.9569 66.717 15.8015 66.9076 15.5587C67.1798 15.2091 67.3069 14.8789 67.2797 14.5681C67.2525 14.267 67.0709 13.9659 66.7351 13.6649L66.3902 13.3735Z" fill="black"/>
<path d="M73.1784 20.0542L71.7807 21.375L71.6718 21.2391C71.9713 20.8506 72.1347 20.433 72.1528 19.9862C72.171 19.5395 72.0621 19.1607 71.8261 18.8694C71.6446 18.6363 71.4449 18.51 71.218 18.4809C70.9911 18.4518 70.8187 18.5003 70.6644 18.6363C70.5736 18.7237 70.501 18.8208 70.4738 18.9374C70.4193 19.0927 70.4103 19.287 70.4284 19.5201C70.4375 19.6852 70.5101 20.0445 70.6372 20.5884C70.8187 21.3459 70.8641 21.9189 70.8005 22.2977C70.7279 22.6764 70.5464 22.9969 70.265 23.2494C69.9111 23.5796 69.4845 23.7059 68.9944 23.6379C68.5043 23.5796 68.0687 23.3174 67.7147 22.8512C67.6058 22.7153 67.5059 22.5696 67.4424 22.4142C67.3698 22.2588 67.2881 22.0549 67.2155 21.7926C67.1792 21.647 67.1247 21.5401 67.0703 21.4722C67.0249 21.4139 66.9523 21.375 66.8615 21.3459C66.7708 21.3168 66.6619 21.3265 66.5439 21.3653L66.4531 21.2391L68.0596 19.7823L68.1594 19.9085C67.7782 20.4136 67.5786 20.9186 67.5695 21.4139C67.5604 21.9092 67.6784 22.3268 67.9325 22.6473C68.1322 22.8998 68.35 23.0455 68.5951 23.0746C68.8401 23.1134 69.0489 23.0455 69.2213 22.8998C69.3211 22.8124 69.4028 22.6958 69.4482 22.5502C69.5027 22.4045 69.5208 22.2394 69.5117 22.0451C69.5027 21.8509 69.4482 21.5401 69.3484 21.1225C69.2122 20.5301 69.1396 20.0931 69.1305 19.7823C69.1215 19.4812 69.1578 19.1996 69.2485 18.9568C69.3302 18.714 69.4754 18.5003 69.6751 18.3158C70.0109 18.0147 70.4103 17.8788 70.8641 17.937C71.3088 17.9856 71.699 18.2187 72.0167 18.6266C72.1347 18.7722 72.2255 18.9374 72.3071 19.1025C72.3616 19.2287 72.4161 19.4035 72.4614 19.6172C72.5159 19.8308 72.5703 19.9668 72.6157 20.0251C72.6611 20.0834 72.7156 20.1125 72.7791 20.1125C72.8335 20.1125 72.9425 20.0834 73.0968 19.9862L73.1784 20.0542Z" fill="black"/>
<path d="M71.291 27.6977L71.1639 27.7851L69.5938 25.1531L69.7208 25.0657L69.8206 25.2406C69.9023 25.3862 70.0022 25.4931 70.1111 25.5416C70.1837 25.5805 70.2654 25.5902 70.3652 25.5805C70.4287 25.5708 70.5921 25.4834 70.8281 25.3183L73.923 23.2108C74.1681 23.0457 74.3042 22.9291 74.3496 22.8611C74.395 22.7932 74.4131 22.696 74.4131 22.5795C74.4131 22.4727 74.3677 22.3464 74.286 22.2007L74.1771 22.0356L74.3042 21.9482L75.8743 24.5801L75.7473 24.6675L75.6384 24.5024C75.5567 24.3568 75.4568 24.2597 75.357 24.2014C75.2844 24.1528 75.2027 24.1431 75.0938 24.1625C75.0212 24.1723 74.8669 24.2597 74.6309 24.415L71.5269 26.5322C71.2819 26.6973 71.1457 26.8139 71.1004 26.8818C71.055 26.9498 71.0368 27.047 71.0459 27.1538C71.0459 27.2703 71.1004 27.3966 71.182 27.5423L71.291 27.6977ZM76.4824 22.2979C76.5732 22.4533 76.6004 22.6184 76.5641 22.7932C76.5278 22.968 76.437 23.1039 76.3009 23.2011C76.1557 23.2982 76.0105 23.3273 75.8471 23.2885C75.6837 23.2496 75.5567 23.1525 75.4659 23.0068C75.3752 22.8612 75.3479 22.6961 75.3842 22.5212C75.4115 22.3464 75.5113 22.2105 75.6474 22.1133C75.7836 22.0162 75.9379 21.9871 76.1012 22.0259C76.2555 22.0551 76.3826 22.1522 76.4824 22.2979Z" fill="black"/>
<path d="M78.823 31.0782L77.4525 31.7386L77.389 31.5832C77.6703 31.3501 77.8609 31.1462 77.9607 30.9714C78.0515 30.7966 78.106 30.6023 78.106 30.379C78.106 30.2527 78.0606 30.0682 77.9517 29.806L77.7792 29.3981L73.8493 31.2822C73.5861 31.4084 73.4318 31.4958 73.3774 31.5638C73.3229 31.6221 73.2957 31.7095 73.2775 31.826C73.2685 31.9426 73.2957 32.0785 73.3592 32.2242L73.4318 32.4087L73.2957 32.4767L72.0977 29.6117L72.2338 29.5534L72.3155 29.7283C72.379 29.8934 72.4516 30.0002 72.5515 30.0779C72.615 30.1265 72.6967 30.1556 72.8056 30.1556C72.8782 30.1556 73.0416 30.0973 73.2957 29.9711L77.2256 28.087L77.0622 27.6888C76.9079 27.3197 76.7264 27.0866 76.5086 26.9895C76.2091 26.8536 75.8642 26.8438 75.4558 26.9701L75.3922 26.8147L76.7718 26.1543L78.823 31.0782Z" fill="black"/>
<path d="M79.6584 35.3308L77.4438 35.9038L77.4711 36.0203C77.5527 36.3894 77.7252 36.6225 77.9702 36.739C78.2244 36.8458 78.5692 36.8653 79.0049 36.807L79.0412 36.9624L76.1913 37.7102L76.155 37.5451C76.4545 37.4286 76.6996 37.2926 76.863 37.1275C77.0354 36.9624 77.1443 36.807 77.1806 36.6419C77.2169 36.4768 77.2079 36.2631 77.1352 35.9815L75.6105 36.3797C75.311 36.4574 75.1294 36.5156 75.0659 36.5545C75.0115 36.603 74.957 36.671 74.9388 36.7487C74.9116 36.8361 74.9207 36.9527 74.957 37.1275L75.0296 37.4674C75.1567 38.0113 75.3745 38.4192 75.6831 38.6814C75.9917 38.9533 76.4001 39.0893 76.9174 39.1087L76.9537 39.2641L75.1657 39.4486L74.0312 34.4276L74.1765 34.3887L74.2218 34.583C74.2672 34.7578 74.3217 34.884 74.4034 34.9714C74.4578 35.0394 74.5395 35.0783 74.6393 35.088C74.712 35.1074 74.8844 35.0783 75.1476 35.0006L78.7145 34.0683C78.9595 34.01 79.1138 33.9614 79.1683 33.9226C79.2499 33.874 79.3135 33.806 79.3407 33.7089C79.3952 33.5827 79.3952 33.4273 79.3498 33.233L79.3044 33.0388L79.4587 32.9902L80.5569 37.8559L78.9504 38.2735L78.9232 38.1084C79.2953 37.9239 79.5495 37.7393 79.6856 37.5451C79.8217 37.3509 79.9034 37.1081 79.9216 36.8167C79.9306 36.6419 79.8943 36.3408 79.7945 35.8941L79.6584 35.3308Z" fill="black"/>
<path d="M81.3219 44.4119L79.4705 44.6061L79.4523 44.4216C79.9152 44.3051 80.2782 44.072 80.5414 43.7224C80.8046 43.363 80.9226 42.994 80.9045 42.6152C80.8863 42.3142 80.7955 42.0811 80.6413 41.916C80.4779 41.7509 80.2964 41.6732 80.1058 41.6926C79.9878 41.7023 79.8789 41.7412 79.7881 41.7994C79.661 41.8965 79.5431 42.0422 79.4341 42.2462C79.3434 42.3919 79.2072 42.7123 79.0076 43.2368C78.7262 43.9555 78.463 44.4508 78.1907 44.713C77.9185 44.9752 77.6008 45.1209 77.2378 45.15C76.7658 45.1792 76.3574 45.014 75.9943 44.6547C75.6313 44.2857 75.4316 43.8098 75.3953 43.2077C75.3863 43.0231 75.3953 42.8386 75.4135 42.6735C75.4407 42.5084 75.4952 42.2947 75.5769 42.0325C75.6222 41.8868 75.6404 41.7703 75.6404 41.6732C75.6404 41.6052 75.6041 41.5178 75.5405 41.4401C75.4861 41.3624 75.3953 41.2847 75.2864 41.2556L75.2773 41.0905L77.3739 40.9351L77.383 41.1002C76.8021 41.275 76.3665 41.5469 76.076 41.9354C75.7856 42.3239 75.6585 42.7415 75.6858 43.1688C75.7039 43.499 75.8038 43.7515 75.9853 43.936C76.1577 44.1206 76.3665 44.1983 76.5843 44.1885C76.7114 44.1691 76.8384 44.1303 76.9564 44.0429C77.0744 43.9652 77.1833 43.8389 77.2831 43.6835C77.383 43.5184 77.51 43.2368 77.6643 42.8386C77.8822 42.2753 78.0727 41.8674 78.227 41.6246C78.3904 41.3721 78.5719 41.1779 78.7807 41.0322C78.9894 40.8962 79.2254 40.8185 79.4886 40.7991C79.9333 40.7603 80.3145 40.9059 80.6594 41.2361C80.9952 41.5566 81.1767 41.9937 81.213 42.5181C81.2221 42.7123 81.213 42.8969 81.1767 43.0814C81.1586 43.2174 81.1041 43.3922 81.0224 43.5961C80.9498 43.8001 80.9135 43.9457 80.9135 44.0234C80.9135 44.1011 80.9498 44.1594 80.9952 44.1982C81.0406 44.2371 81.1495 44.2759 81.3219 44.2954V44.4119Z" fill="black"/>
<path d="M75.5644 49.384L75.4102 49.3743L75.6098 46.2471L75.755 46.2568L75.746 46.4607C75.7369 46.6355 75.755 46.7715 75.8004 46.8881C75.8367 46.9658 75.8912 47.0337 75.991 47.0823C76.0546 47.1211 76.227 47.1503 76.4993 47.1697L80.166 47.4319C80.4564 47.4513 80.6379 47.4416 80.7105 47.4222C80.7831 47.3931 80.8467 47.3348 80.9102 47.2377C80.9737 47.1406 81.01 47.0143 81.0191 46.8492L81.0282 46.6453L81.1825 46.655L80.9919 49.7822L80.8376 49.7725L80.8467 49.5782C80.8557 49.4034 80.8376 49.2675 80.7831 49.1509C80.7559 49.0829 80.6924 49.0149 80.6016 48.9664C80.5381 48.9275 80.3656 48.8887 80.0843 48.879L76.4176 48.6168C76.1272 48.5973 75.9547 48.5973 75.873 48.6265C75.8004 48.6653 75.7369 48.7236 75.6734 48.8207C75.6189 48.9178 75.5826 49.0441 75.5644 49.2092V49.384ZM82.7254 48.3254C82.7163 48.5099 82.6437 48.6556 82.5167 48.7722C82.3896 48.8887 82.2444 48.947 82.081 48.9275C81.9176 48.9178 81.7724 48.8401 81.6635 48.7042C81.5546 48.5682 81.5001 48.4128 81.5092 48.238C81.5183 48.0535 81.5909 47.9078 81.718 47.7913C81.845 47.6747 81.9903 47.6164 82.1536 47.6359C82.317 47.6456 82.4622 47.7233 82.5711 47.8495C82.6891 47.9855 82.7345 48.1506 82.7254 48.3254Z" fill="black"/>
<path d="M16.535 35.3507C19.7842 36.5162 23.215 35.6906 26.0194 39.42C26.4006 39.925 27.3264 39.6628 28.1069 39.8085C27.9708 40.4689 27.9526 40.8379 28.0343 41.3332L27.4444 41.3041C26.5005 40.2746 26.21 40.1678 25.375 40.129C25.1481 40.1095 23.5235 40.2164 23.2966 40.2067C21.8354 40.1192 20.0565 38.8859 18.677 37.837C17.842 37.2057 16.6712 36.487 15.7363 35.8655C14.7652 34.9817 16.3989 35.3022 16.535 35.3507ZM37.2646 43.6835L37.1738 45.4899C37.1012 46.8593 36.4478 47.51 36.4115 48.2092C36.3933 48.4326 36.7926 48.6948 36.9832 48.9959C37.5278 49.8699 38.9346 51.6764 39.6153 51.7055C39.824 51.7152 42.6467 51.385 44.1805 51.1616C44.4619 51.1228 44.7886 50.6275 45.1698 50.307C45.4239 50.103 45.9322 49.8505 46.1954 49.8602C46.4132 49.8699 46.504 50.0739 46.7218 50.0836C47.3117 50.1127 47.348 49.3261 47.348 49.2969C47.3752 48.8405 47.2028 48.9959 46.9124 48.4423C47.2391 48.1315 47.6929 47.7139 47.702 47.4905C47.7111 47.306 47.4932 47.0341 47.221 46.8593C47.2119 46.5679 47.2754 46.16 47.1393 45.9269C46.8035 45.3928 46.2044 44.9266 45.8323 44.4119C45.551 44.0331 45.5782 43.5378 45.2515 43.2562C44.961 43.0134 44.3983 43.0716 44.0988 42.8483C43.3909 42.3141 42.7465 41.6731 42.0476 41.6343C41.8207 41.6246 41.2671 41.8771 41.0402 41.8674C40.8133 41.8577 40.0146 41.4206 39.7877 41.4109L38.272 41.3235C37.7184 41.275 37.2646 43.6738 37.2646 43.6835ZM46.6038 29.6305L46.3224 35.2925C46.3134 35.4964 46.4586 35.7781 46.6038 35.8752C47.2845 36.2928 48.0106 36.5647 48.7366 37.1086C48.7366 37.1086 48.8546 37.3805 48.4734 37.3514C48.2465 37.3417 48.1104 37.0697 47.938 36.9435C47.8926 36.9532 47.7746 37.06 47.6929 37.196C48.0015 37.5942 48.301 38.0118 48.6187 38.0312C48.8456 38.0409 48.9545 37.7593 49.1723 37.769C49.3992 37.7787 49.5716 37.9826 49.7895 37.9924C50.3522 38.0312 53.3654 35.8849 53.9916 35.9237C54.2185 35.9335 54.7268 36.5064 55.0808 36.8269C55.1261 36.8172 55.1624 36.7978 55.1806 36.6618C55.1897 36.419 54.6723 35.9043 54.6814 35.6712C54.7086 35.2342 56.896 34.263 56.9686 34.2339C59.9273 32.68 62.8498 31.3203 65.9175 29.0283L66.2715 29.1254C64.8012 30.6016 62.5685 32.5246 60.8712 33.9328C60.726 34.0494 60.5082 33.9814 60.3176 33.9814C60.0544 34.3213 60.0363 34.7583 59.8003 35.0205C59.0016 35.9237 57.259 37.5553 56.9867 37.5359C56.7689 37.5262 56.5238 37.264 56.3332 37.128C56.2516 37.1766 56.1427 37.2251 56.1336 37.3902C56.1245 37.633 56.2969 37.7884 56.2879 38.0215C56.2697 38.3128 55.471 39.2063 55.0082 39.5754C53.919 40.4397 52.6302 41.3624 51.5684 42.3044C51.2235 42.6249 51.0601 43.0619 50.7515 43.4116C50.5972 43.5864 50.4702 43.7223 50.207 43.7029C49.499 43.6641 49.2358 41.9062 48.664 41.6052L48.5642 41.7023C49.0997 42.9066 49.5535 44.1108 49.9982 45.3151C50.4339 44.577 50.5972 43.4213 51.7408 42.9065C52.4578 43.5767 52.0585 44.8975 53.2656 45.6841C53.9826 46.1503 54.9537 46.2474 55.7161 46.4514C56.3423 46.6068 57.0593 46.9855 57.6674 47.1798C60.9892 48.2384 64.9191 48.5297 68.2319 50.812C67.4876 51.0354 66.8432 51.0936 66.2079 51.1616L61.1617 50.9771C60.3448 51.0257 58.7565 51.2296 58.5296 51.2102C58.3027 51.2005 57.377 50.7634 57.1592 50.7537C56.9323 50.744 55.6889 51.0548 55.462 51.0451L53.6195 50.9382L53.32 51.2199C54.1096 52.7447 55.7433 53.5313 56.8778 54.6385C57.4224 55.1629 57.8399 55.9107 58.5024 56.4934C60.2813 58.0667 62.5322 59.2224 64.3746 61.4659C64.184 61.6407 64.0751 61.6407 63.948 61.631L52.1492 55.192C51.3687 55.3377 50.7969 54.9201 50.2977 55.7068C50.0345 56.1147 49.9528 56.7556 49.6352 57.2121C48.0015 57.5909 46.9124 56.4352 46.8035 58.6495C46.7944 58.8825 46.985 59.1059 47.0031 59.4167C47.23 63.0878 47.2119 66.856 47.3752 71.0126L47.2028 71.0612C45.0609 66.8074 44.6615 62.3788 42.9371 58.0085C42.8463 58.1056 42.7465 58.2027 42.692 58.261C41.6301 61.6698 41.1037 65.069 39.4882 68.4973C39.3339 68.8372 39.3793 69.3519 39.2885 69.8181C39.1887 70.3037 39.0798 71.1 38.6078 71.8478C38.3446 71.5371 38.1722 71.304 38.1813 71.0903L38.4989 57.1441C38.3719 56.5517 38.6532 55.7165 37.8636 55.3668C37.4007 55.5319 37.6367 56.0273 37.4007 56.4254C37.0377 56.1827 36.475 56.1729 36.0303 55.4348C36.1846 55.2892 38.154 53.541 38.7621 53.5702C38.989 53.5896 42.093 54.5316 42.3199 54.5511C42.5287 54.5608 43.0097 54.4539 43.3818 54.3471C43.5452 54.2986 43.7449 54.4928 43.9082 54.4248C45.1516 53.8129 46.8488 53.5702 48.0106 51.8123C47.7655 51.6181 47.5568 51.4724 47.3843 51.4627C47.1574 51.453 45.5873 52.5019 44.6978 52.9097C43.5906 53.4148 42.5105 53.2302 41.4214 53.3662C41.3216 53.4342 41.1491 53.609 41.0402 53.6673C40.8405 53.6964 40.6499 53.7838 40.414 53.7741C40.178 53.7644 39.7242 53.4925 39.4519 53.3468C37.4007 52.2591 35.3496 49.6466 35.4403 47.7528C35.4494 47.5877 35.9123 47.238 35.9486 46.6262C35.9576 46.3834 35.4857 45.0529 35.5039 44.8101C35.5129 44.577 36.0212 44.0914 36.3298 43.7126C36.239 43.6252 36.1119 43.5475 36.0212 43.4407C35.9123 41.712 39.5336 38.9635 41.0493 39.0412C41.2762 39.0607 41.6755 39.4297 41.9478 39.556L42.1475 39.3617C42.1202 39.2937 42.0204 39.1966 41.8934 39.1869C41.9024 38.983 42.0023 38.7984 42.093 38.6916C42.0658 38.6333 41.9841 38.5265 41.8661 38.4391C41.4486 38.8082 40.8587 38.5362 40.3323 38.7305C39.1433 39.1772 37.5913 40.7117 36.4931 41.5178C36.2935 41.6731 36.003 41.7217 35.758 41.8771C35.7943 43.5378 34.9139 43.8389 34.8595 44.8683C34.8504 45.1111 35.159 46.092 35.1499 46.3348C35.1408 46.5776 34.9048 47.5779 34.8958 47.811C34.8322 49.1221 37.7093 52.9777 37.7093 52.9874C37.7002 53.2594 37.5913 53.3565 37.5369 53.4342C35.5402 54.6093 31.5558 56.9305 31.3017 56.911C30.6936 56.8722 29.2959 55.3863 29.3413 54.6773C29.3776 53.9781 29.9856 53.4245 30.4576 53.1331C30.5574 53.1137 30.6391 53.1234 30.7208 53.0943C31.1201 52.8029 31.1383 52.6767 31.1565 52.4727C31.1655 52.2299 32.5269 51.1033 33.3165 50.2681C33.2167 50.103 33.0261 49.9476 32.8809 49.7728C32.7992 49.8117 32.6721 49.9476 32.5542 50.0642C32.2274 49.8699 31.8644 48.9473 31.8825 48.6657L31.9098 48.1024C32.3363 48.3937 32.4089 48.9376 32.7538 49.3455C32.8355 49.2872 32.9353 49.2095 32.9444 49.0541C32.9626 48.5006 32.3999 48.0344 32.7811 47.578C31.2472 46.5485 29.6952 46.4222 28.116 45.7036C27.8528 45.5773 27.4534 45.0334 27.2356 45.0237C27.0087 45.014 26.7274 45.1791 26.4914 45.1694L18.0235 42.4598L18.0416 42.0033L30.2852 42.2073C31.0929 42.1587 31.9188 42.1393 32.7175 42.0228C32.8174 42.0131 32.9716 41.6829 33.1985 41.7023C33.4254 41.712 33.4618 41.9062 33.6796 41.9159C33.852 41.9159 33.9246 41.7314 33.9972 41.576C33.8339 41.3915 33.616 41.2458 33.4073 41.2264L33.4345 40.634C33.4436 40.3718 33.7431 40.129 34.0063 39.8765L34.7959 40.5077C34.9048 40.4495 35.0773 40.3815 35.0864 40.2067C35.0954 39.9833 35.0501 39.6725 34.923 39.42C34.5781 38.7984 34.0608 38.138 33.8066 37.5262C33.734 37.3514 33.8339 37.128 33.7794 36.9338C33.6887 36.7007 32.8174 35.0205 32.8355 34.5349C32.8446 34.3019 32.9898 34.2339 33.1622 34.0882C32.8446 33.8357 32.3363 33.2141 31.9551 33.1947C30.6119 30.6988 29.196 28.1154 27.88 25.6292L28.0343 25.5126C28.1069 25.6 28.2703 25.5029 28.4518 25.5418C30.4394 27.7755 32.5451 30.0578 34.451 32.3595C35.0137 33.0587 35.2951 34.3213 36.3661 35.1954C36.602 35.3702 36.9651 35.3216 37.1648 35.4964C37.8364 36.0597 38.4263 36.8658 39.0163 37.4679C39.4519 37.3125 39.1978 36.9046 39.2159 36.6618C39.5427 36.5453 40.0509 36.6133 40.4866 36.0306C40.414 35.9335 40.3504 35.7781 40.1417 35.5256C40.532 35.545 40.8133 35.3702 41.0856 35.3799C41.0765 35.6227 40.9313 35.9432 41.1582 36.3413C41.2399 36.3122 41.3851 36.2054 41.4759 36.0306C41.6392 35.7004 41.6846 35.1662 41.857 34.7098C42.5196 33.0005 43.6087 31.0484 43.9173 29.3488C43.9627 29.038 44.2985 28.6787 44.4528 28.3971C44.6888 27.9406 44.7795 27.4453 44.9338 26.9888C45.1879 26.2313 45.4239 25.367 45.6871 24.522C46.1591 23.007 46.6855 21.4628 47.2119 19.9769C47.4569 19.2582 47.6384 18.2482 48.3645 17.7432L46.6038 29.6305ZM37.6095 57.4452C36.5113 59.1545 34.8958 60.6307 33.4708 62.1263C33.017 62.6216 32.6812 63.418 32.1548 63.9813C30.2761 65.9819 29.3594 67.8757 27.762 69.7986L27.6168 69.7015C29.7134 65.2341 32.1639 60.2033 35.286 55.8719C36.0575 56.338 36.8471 56.8722 37.6095 57.4452ZM29.8767 56.5614C29.8586 56.9596 29.4502 58.0667 29.1688 58.2124C26.7183 59.4847 24.1226 60.9512 21.3816 62.4274C21.3998 62.1554 21.4996 61.9515 21.5359 61.8252C22.9518 60.4461 24.5037 59.1253 25.9741 57.6297C26.3916 57.2121 26.7909 56.5323 27.3173 56.0855C27.7348 55.7359 28.5698 55.1435 29.2777 55.1823C29.4592 55.6388 29.8858 56.3186 29.8767 56.5614ZM31.4197 48.1315C31.5921 48.7919 31.7282 49.8991 31.7192 50.1516C31.6829 50.9285 28.8058 50.9965 28.6242 51.0159C25.5475 51.3753 22.3709 51.89 19.2851 52.2979L19.2397 52.1134C21.8082 50.8314 24.4402 50.2196 27.1358 49.3358C28.0706 49.025 28.9782 48.6171 29.8858 48.2384C30.1672 48.1218 30.621 47.6362 30.8569 47.6459C31.1111 47.6654 31.3561 47.8596 31.4197 48.1315ZM59.1377 43.2659C59.047 43.3339 58.8836 43.499 58.8382 43.567C57.4224 44.0137 55.5436 45.2277 53.8827 45.0723C53.7466 44.0234 53.2746 42.353 53.2928 42.1102C53.3019 41.848 53.6105 41.6343 53.7738 41.4692C53.9916 41.7217 54.1006 41.9159 54.2911 41.9257C54.518 41.9257 56.0247 41.071 56.8415 40.935C58.094 40.7117 60.4537 40.6243 60.6716 40.6437L62.0874 40.7214C62.7954 40.7505 65.3729 40.3135 65.7995 40.2552L65.8449 40.4397C63.7302 41.3818 61.443 42.3141 59.1377 43.2659ZM24.3313 33.8842L33.0261 38.5654C32.899 38.9247 32.5451 39.1092 32.2546 39.3714C32.3363 39.6142 32.5632 39.8764 32.8446 40.0998C32.7175 40.566 32.5088 40.9545 32.173 41.3818C31.8462 41.2458 31.5286 41.0807 31.3017 40.8768C28.8511 38.7013 26.3916 36.2928 23.7777 33.8551L24.3313 33.8842ZM49.9165 36.7395C49.0271 37.128 47.938 35.9043 46.9487 35.3993L46.9759 34.8166C50.4248 31.029 53.9372 27.1539 57.3135 23.4052C57.6583 23.0361 58.1575 22.57 58.6385 22.298L58.7475 22.4437C55.1352 27.1734 53.6558 32.0099 49.9165 36.7395ZM37.2374 19.7535L41.1491 34.7L37.8545 35.5353C37.6912 33.0976 37.673 30.7667 37.5278 28.4553C37.4733 27.6881 36.9469 26.3478 36.956 26.0953C36.9742 25.8623 37.2646 25.2019 37.2827 24.9591C37.2918 24.7163 36.8289 21.2297 36.8471 20.9869L36.9106 19.7341L37.2374 19.7535ZM56.2606 62.0874C56.2516 62.3497 56.3696 62.8838 56.5965 63.0683C56.9413 63.0295 57.0956 62.5536 56.9141 62.0874C58.5024 62.4468 60.7079 63.6413 61.6699 65.5157L61.5338 65.642C60.3993 64.7485 58.3481 63.6511 56.9141 63.5636C56.6963 63.5539 56.0791 63.486 55.6889 63.6996C53.9644 64.6222 52.485 66.8171 52.1946 68.3322C52.1492 68.6041 52.2309 68.9634 52.2218 69.1965L52.0948 71.8673C50.9421 70.1191 50.7152 68.6235 50.7969 67.1765C50.806 66.9239 50.9421 65.9139 51.1781 65.1855C51.3868 65.1661 52.7755 65.2438 52.8118 64.5931C52.8208 64.3503 52.6665 63.8162 52.6847 63.5734C52.6938 63.3209 52.8027 63.1169 52.957 62.8353C53.1839 62.9712 53.4199 63.1557 53.7375 63.35C53.7647 63.3014 53.8101 63.2529 53.8555 63.2043C53.7829 63.0975 53.7284 62.9615 53.5832 62.7867C54.2639 62.3885 54.8176 62.0098 55.3984 62.0389L56.2606 62.0874Z" fill="#009EE0"/>
<path d="M16.535 35.3512C19.7842 36.5166 23.215 35.6911 26.0194 39.4204C26.4006 39.9255 27.3264 39.6633 28.1069 39.8089C27.9708 40.4693 27.9526 40.8384 28.0343 41.3337L27.4444 41.3045C26.5005 40.2751 26.21 40.1683 25.375 40.1294C25.1481 40.11 23.5235 40.2168 23.2966 40.2071C21.8354 40.1197 20.0565 38.8863 18.677 37.8374C17.842 37.2062 16.6712 36.4875 15.7363 35.8659C14.7652 34.9821 16.3989 35.3026 16.535 35.3512ZM56.2606 62.0879C56.2516 62.3501 56.3696 62.8843 56.5965 63.0688C56.9413 63.03 57.0956 62.5541 56.9141 62.0879C58.5024 62.4472 60.7079 63.6418 61.6699 65.5162L61.5338 65.6424C60.3993 64.7489 58.3481 63.6515 56.9141 63.5641C56.6963 63.5544 56.0791 63.4864 55.6889 63.7001C53.9644 64.6227 52.485 66.8176 52.1946 68.3326C52.1492 68.6046 52.2309 68.9639 52.2218 69.197L52.0948 71.8677C50.9421 70.1196 50.7152 68.624 50.7969 67.1769C50.806 66.9244 50.9421 65.9144 51.1781 65.186C51.3868 65.1666 52.7755 65.2442 52.8118 64.5936C52.8208 64.3508 52.6665 63.8166 52.6847 63.5738C52.6938 63.3213 52.8027 63.1174 52.957 62.8357C53.1839 62.9717 53.4199 63.1562 53.7375 63.3504C53.7647 63.3019 53.8101 63.2533 53.8555 63.2048C53.7829 63.0979 53.7284 62.962 53.5832 62.7871C54.2639 62.389 54.8176 62.0102 55.3984 62.0393L56.2606 62.0879Z" fill="#FFDD00"/>
<path d="M59.21 80.0837C59.21 80.6081 58.8197 81.0257 58.3296 81.0257C57.8395 81.0257 57.4492 80.6081 57.4492 80.0837C57.4492 79.5592 57.8395 79.1416 58.3296 79.1416C58.8197 79.1416 59.21 79.5592 59.21 80.0837Z" fill="black"/>
<path d="M42.5119 0C19.0324 0 0 20.3657 0 45.5C0 70.6246 19.0324 91 42.5119 91C65.9915 91 85.033 70.6343 85.033 45.5C85.033 20.3657 65.9915 0 42.5119 0ZM42.5119 89.8152C19.6404 89.8152 1.0982 69.9739 1.0982 45.5C1.0982 21.0262 19.6404 1.18485 42.5119 1.18485C65.3834 1.18485 83.9348 21.0262 83.9348 45.5C83.9348 69.9739 65.3834 89.8152 42.5119 89.8152Z" fill="black"/>
</svg>
