<svg width="324" height="91" viewBox="0 0 324 91" fill="none" xmlns="http://www.w3.org/2000/svg">
<path d="M0.716919 45.4906C0.716919 20.7934 19.4316 0.767578 42.5028 0.767578C65.5921 0.767578 84.2977 20.7934 84.2977 45.4906C84.2977 70.1879 65.5921 90.2137 42.5028 90.2137C19.4316 90.2137 0.716919 70.1879 0.716919 45.4906Z" fill="#FFDD00"/>
<path d="M9.24844 66.4782L9.1123 66.5559L7.72367 63.8075L7.85981 63.7298L7.9415 63.9046C8.0141 64.0503 8.10486 64.1668 8.2047 64.2348C8.26823 64.2834 8.35899 64.3028 8.45883 64.2834C8.52236 64.2737 8.68573 64.2057 8.93078 64.0503L12.1618 62.1856C12.416 62.0399 12.5612 61.9331 12.6156 61.8748C12.661 61.8068 12.6882 61.7194 12.6882 61.6029C12.6882 61.4863 12.6519 61.3601 12.5793 61.2144L12.4976 61.0396L12.6338 60.9619L14.0224 63.7104L13.8863 63.7881L13.8046 63.6132C13.732 63.4579 13.6321 63.351 13.5414 63.283C13.4778 63.2345 13.3871 63.2151 13.2873 63.2248C13.2146 63.2345 13.0604 63.3025 12.8153 63.4481L9.58425 65.3225C9.33012 65.4682 9.1849 65.575 9.13045 65.643C9.08507 65.711 9.05784 65.7984 9.05784 65.9149C9.05784 66.0218 9.09415 66.1578 9.16675 66.3034L9.24844 66.4782ZM14.7848 61.4961C14.8665 61.6515 14.8756 61.8166 14.8392 61.9914C14.7848 62.1662 14.694 62.2924 14.5397 62.3798C14.3945 62.4672 14.2402 62.477 14.0769 62.4284C13.9135 62.3798 13.7955 62.273 13.7138 62.1176C13.6321 61.9525 13.6231 61.7971 13.6684 61.6223C13.7138 61.4475 13.8137 61.3213 13.9589 61.2338C14.1041 61.1464 14.2584 61.127 14.4218 61.1756C14.5851 61.2338 14.7031 61.3407 14.7848 61.4961Z" fill="black"/>
<path d="M17.1719 68.2065L15.7107 69.4496L15.6108 69.3039C15.9376 68.9349 16.1191 68.527 16.1554 68.0705C16.1917 67.6238 16.1009 67.245 15.8831 66.9245C15.7107 66.6914 15.5201 66.5554 15.3022 66.5069C15.0844 66.468 14.8938 66.5069 14.7395 66.6331C14.6488 66.7108 14.5762 66.808 14.5308 66.9148C14.4763 67.0702 14.4582 67.2644 14.4582 67.4975C14.4673 67.6626 14.5126 68.0219 14.6125 68.5755C14.7577 69.3428 14.7758 69.9158 14.6942 70.2945C14.6034 70.6733 14.4128 70.9841 14.1133 71.2171C13.7412 71.5182 13.3146 71.625 12.8245 71.5279C12.3344 71.4308 11.926 71.1492 11.5811 70.6733C11.4722 70.5276 11.3905 70.3722 11.3179 70.2071C11.2544 70.0517 11.1908 69.8381 11.1273 69.5758C11.091 69.4302 11.0456 69.3136 10.9911 69.2456C10.9458 69.1874 10.8822 69.1388 10.7915 69.1097C10.6916 69.0805 10.5918 69.0805 10.4738 69.1097L10.3831 68.9834L12.0621 67.6238L12.1529 67.75C11.7535 68.2356 11.5357 68.7309 11.4903 69.2262C11.454 69.7215 11.5448 70.1391 11.7898 70.4693C11.9804 70.7315 12.1983 70.8966 12.4342 70.9452C12.6793 70.9938 12.888 70.9452 13.0695 70.7995C13.1785 70.7121 13.2511 70.5956 13.3146 70.4596C13.3691 70.3236 13.3963 70.1488 13.3963 69.9546C13.4054 69.7701 13.3691 69.4593 13.2874 69.032C13.1785 68.4396 13.124 67.9831 13.1331 67.6917C13.1422 67.3907 13.1875 67.1187 13.2964 66.8759C13.3963 66.6331 13.5506 66.4195 13.7593 66.2641C14.1133 65.9727 14.5217 65.8756 14.9664 65.9436C15.4112 66.0213 15.7833 66.2738 16.0828 66.6817C16.1917 66.8371 16.2824 67.0022 16.3551 67.177C16.4095 67.3033 16.4458 67.4781 16.4912 67.7015C16.5366 67.9151 16.5729 68.0608 16.6183 68.1191C16.6636 68.187 16.709 68.2162 16.7726 68.2259C16.827 68.2356 16.9359 68.1968 17.0902 68.1191L17.1719 68.2065Z" fill="black"/>
<path d="M22.2089 73.6548L21.2015 74.8591L21.0835 74.7523C21.256 74.4124 21.3467 74.1307 21.3649 73.9462C21.3921 73.7423 21.3558 73.548 21.2832 73.3441C21.2378 73.2275 21.1198 73.0818 20.9292 72.8973L20.6116 72.5963L17.7345 76.0245C17.5439 76.2479 17.435 76.4033 17.4077 76.481C17.3896 76.5587 17.3896 76.6558 17.4168 76.7529C17.4531 76.8695 17.5257 76.9763 17.6437 77.0928L17.7799 77.2288L17.68 77.3453L15.5109 75.2476L15.6107 75.131L15.7468 75.2573C15.8648 75.3739 15.9828 75.4418 16.0917 75.471C16.1734 75.4904 16.2551 75.4807 16.3459 75.4321C16.4185 75.403 16.5455 75.2767 16.727 75.0534L19.6132 71.6251L19.3137 71.3337C19.0323 71.0618 18.7782 70.9355 18.5422 70.9355C18.2155 70.9452 17.8888 71.0812 17.5711 71.3628L17.4531 71.2463L18.4696 70.0518L22.2089 73.6548Z" fill="black"/>
<path d="M23.8067 79.8321L22.1186 78.7444L21.6376 79.1037C21.4742 79.23 21.3653 79.3465 21.3108 79.4631C21.2292 79.6088 21.2292 79.7447 21.2927 79.8807C21.3381 79.9681 21.4742 80.0943 21.7102 80.2692L21.6285 80.4051L20.0311 79.3854L20.1128 79.2494C20.3034 79.3271 20.4849 79.3465 20.6664 79.2883C20.848 79.23 21.1293 79.0649 21.5105 78.7832L25.513 75.792L25.5856 75.8308L24.9503 81.1529C24.8868 81.658 24.8868 81.9979 24.9322 82.163C24.9685 82.2892 25.0592 82.4155 25.1954 82.5223L25.1137 82.6583L22.7902 81.1724L22.8719 81.0364L22.9717 81.0947C23.1623 81.2112 23.2985 81.2695 23.4074 81.2598C23.48 81.2501 23.5345 81.2112 23.5798 81.1335C23.6071 81.0849 23.6252 81.0364 23.6343 80.9781C23.6434 80.949 23.6524 80.8325 23.6888 80.6285L23.8067 79.8321ZM23.843 79.4728L24.1244 77.2488L22.4 78.5404L23.843 79.4728Z" fill="black"/>
<path d="M31.1397 78.8316L32.6645 83.2796L33.4269 80.842C33.5358 80.5021 33.5539 80.2495 33.4995 80.1039C33.4269 79.8902 33.2363 79.7445 32.9458 79.6474L32.9912 79.492L34.7429 80.1136L34.6975 80.269C34.4615 80.2204 34.2982 80.2107 34.2074 80.2301C34.1166 80.2496 34.035 80.3078 33.9533 80.4049C33.8807 80.5021 33.799 80.6769 33.7173 80.9391L32.2561 85.6688L32.1199 85.6202L30.0052 79.6183L28.8798 83.2214C28.78 83.5419 28.78 83.7944 28.8798 83.9595C28.9796 84.1246 29.1248 84.2411 29.3064 84.2994L29.4334 84.3382L29.388 84.4936L27.5002 83.8235L27.5547 83.6681C27.8451 83.7749 28.063 83.7847 28.2172 83.6973C28.3715 83.6098 28.4895 83.4156 28.5894 83.1146L29.8328 79.1036L29.7692 78.9093C29.7057 78.7151 29.6331 78.5888 29.5605 78.5111C29.4879 78.4334 29.379 78.3655 29.2156 78.2975L29.2701 78.1421L31.1397 78.8316Z" fill="black"/>
<path d="M39.5352 83.6384C40.0435 83.8327 40.3975 84.0366 40.5971 84.2503C40.8785 84.5514 40.9965 84.9107 40.9511 85.338C40.9057 85.7751 40.697 86.1344 40.3339 86.3869C39.8892 86.688 39.272 86.8045 38.4824 86.7074L35.6598 86.3772L35.6779 86.2121C35.9411 86.2412 36.1136 86.2412 36.2134 86.1927C36.3133 86.1538 36.3859 86.0956 36.4222 86.0179C36.4676 85.9402 36.5039 85.7362 36.5402 85.4157L36.9304 81.5601C36.9667 81.2396 36.9667 81.0357 36.9395 80.9483C36.9123 80.8609 36.8578 80.7832 36.758 80.7249C36.6763 80.6569 36.5039 80.6181 36.2497 80.5889L36.2588 80.4238L38.9271 80.7346C39.5625 80.8026 40.0072 80.9191 40.2613 81.0745C40.5154 81.2299 40.706 81.4339 40.8331 81.6961C40.9602 81.9583 41.0146 82.2205 40.9874 82.4925C40.9602 82.7838 40.8331 83.0169 40.6153 83.2208C40.3975 83.4248 40.0344 83.5608 39.5352 83.6384ZM38.0195 83.687L37.829 85.6002L37.8017 85.8139C37.7836 85.9693 37.8108 86.0956 37.8743 86.183C37.9469 86.2704 38.0468 86.3286 38.2011 86.3481C38.4189 86.3772 38.6276 86.3481 38.8182 86.2607C39.0088 86.1733 39.1722 86.0373 39.2902 85.8625C39.4082 85.6779 39.4808 85.4643 39.4989 85.2215C39.5262 84.9398 39.4899 84.6873 39.39 84.4543C39.2993 84.2115 39.145 84.0463 38.9362 83.9298C38.7456 83.8133 38.4461 83.7356 38.0195 83.687ZM38.0559 83.3471C38.4461 83.3957 38.7366 83.3762 38.9362 83.3082C39.1268 83.2403 39.2811 83.1237 39.3991 82.9586C39.5171 82.8032 39.5806 82.5896 39.6169 82.3274C39.6442 82.0651 39.6169 81.8418 39.5352 81.6669C39.4536 81.4921 39.3265 81.3465 39.154 81.2396C38.9816 81.1328 38.7003 81.0551 38.3009 81.0065L38.0559 83.3471Z" fill="black"/>
<path d="M43.0569 81.0753L45.9249 80.7645L45.934 80.9296L45.7888 80.9393C45.571 80.9684 45.4257 81.0073 45.3531 81.0656C45.2805 81.1238 45.2261 81.1918 45.1988 81.2889C45.1807 81.3763 45.1807 81.59 45.2079 81.9299L45.4802 84.8435C45.5256 85.3776 45.5982 85.7273 45.6889 85.8924C45.7797 86.0477 45.9158 86.1837 46.0974 86.2808C46.2789 86.3779 46.5058 86.4071 46.7599 86.3779C47.0594 86.3391 47.3135 86.242 47.5041 86.0769C47.7038 85.9021 47.849 85.6884 47.9307 85.4262C48.0124 85.164 48.0215 84.7075 47.9579 84.0762L47.722 81.658C47.7038 81.3958 47.6584 81.2015 47.5949 81.0947C47.5314 80.9879 47.4588 80.9102 47.368 80.881C47.2409 80.8228 47.0594 80.8034 46.8416 80.8422L46.8234 80.6771L48.7476 80.4731L48.7657 80.6382L48.6477 80.648C48.4934 80.6674 48.3664 80.7159 48.2665 80.7936C48.1667 80.8713 48.1032 80.9782 48.0759 81.1238C48.0487 81.2112 48.0487 81.3958 48.0669 81.6386L48.2756 83.9014C48.3391 84.6007 48.3391 85.1057 48.2938 85.4262C48.2393 85.7467 48.0578 86.0575 47.7401 86.3488C47.4315 86.6402 46.9868 86.8247 46.415 86.883C45.934 86.9315 45.5528 86.9024 45.2805 86.7956C44.9084 86.6499 44.6361 86.4362 44.4546 86.1546C44.2822 85.8729 44.1733 85.4942 44.1188 84.9989L43.8465 82.0853C43.8102 81.7357 43.783 81.5317 43.7285 81.454C43.6831 81.3763 43.6196 81.3181 43.5289 81.2695C43.4381 81.2307 43.2747 81.221 43.0388 81.2501L43.0569 81.0753Z" fill="black"/>
<path d="M56.2624 82.0857L56.6708 84.1543L51.9513 85.7956L51.9059 85.6402L52.0784 85.582C52.2326 85.5237 52.3506 85.4557 52.4232 85.3683C52.4777 85.31 52.514 85.2226 52.5231 85.1158C52.5322 85.0381 52.4868 84.8536 52.4051 84.5719L51.2706 80.8232C51.1798 80.5318 51.1163 80.357 51.0618 80.289C51.0074 80.2307 50.9348 80.1919 50.8259 80.1628C50.726 80.1433 50.599 80.153 50.4447 80.2113L50.2722 80.2696L50.2178 80.1142L53.0586 79.1333L53.1039 79.2887L52.877 79.3664C52.7227 79.4149 52.6048 79.4926 52.5322 79.5801C52.4777 79.6383 52.4414 79.7257 52.4323 79.8326C52.4232 79.9102 52.4686 80.0948 52.5503 80.3764L53.6485 83.9989C53.7393 84.2903 53.8119 84.4651 53.8663 84.5428C53.9208 84.6011 54.0025 84.6496 54.1023 84.6593C54.1749 84.6593 54.3383 84.6108 54.5924 84.5331L55.0281 84.3777C55.3094 84.2806 55.5272 84.1446 55.6906 83.9698C55.8449 83.795 55.9538 83.5716 56.0264 83.29C56.0899 83.018 56.1172 82.6296 56.1081 82.144L56.2624 82.0857Z" fill="black"/>
<path d="M61.0637 74.7432L63.5505 78.8318C63.7411 79.1426 63.8773 79.3271 63.9499 79.3951C64.0225 79.4631 64.1223 79.4825 64.2403 79.4825C64.3492 79.4825 64.5035 79.4243 64.676 79.298L64.7758 79.2203L64.8666 79.3563L62.3979 81.085L62.3162 80.949L62.4342 80.8616C62.6339 80.7256 62.77 80.5994 62.8154 80.4926C62.8698 80.3857 62.888 80.2692 62.8698 80.1721C62.8517 80.0653 62.7428 79.8516 62.5522 79.5408L60.9639 76.9477C60.8277 76.7147 60.7279 76.5787 60.6735 76.5301C60.6099 76.4816 60.5464 76.4622 60.4647 76.4622C60.383 76.4622 60.3013 76.4816 60.2287 76.5398C60.1107 76.6175 59.9928 76.7535 59.8748 76.9575L59.7296 76.87L60.9457 74.8306L61.0637 74.7432Z" fill="black"/>
<path d="M67.2536 77.5991L67.181 77.5117C67.4442 77.1038 67.6257 76.6959 67.7256 76.3075C67.8254 75.919 67.8345 75.5402 67.78 75.1712C67.7165 74.7924 67.5804 74.4331 67.3716 74.0737C67.3081 74.268 67.2355 74.4234 67.1719 74.5302C67.0993 74.6467 67.0267 74.7536 66.9269 74.8507C66.6092 75.1517 66.2462 75.2877 65.8378 75.2489C65.4203 75.21 65.0391 74.9769 64.676 74.5593C64.431 74.268 64.2585 73.9475 64.1587 73.5881C64.068 73.2288 64.068 72.8889 64.1678 72.5587C64.2676 72.2188 64.4219 71.9371 64.6488 71.7235C64.8939 71.4904 65.1843 71.3447 65.5292 71.267C65.865 71.2087 66.228 71.2573 66.5911 71.4127C66.9632 71.5681 67.299 71.8303 67.5985 72.1799C67.9888 72.6558 68.2701 73.1997 68.4244 73.8309C68.5787 74.4622 68.5515 75.1032 68.3609 75.7636C68.1703 76.4143 67.7982 77.0261 67.2536 77.5991ZM67.1901 73.7435C66.9995 73.4813 66.827 73.2579 66.6728 73.0734C66.3369 72.6752 65.983 72.3547 65.6109 72.0925C65.393 71.9468 65.2115 71.8788 65.0391 71.8886C64.9483 71.8886 64.8666 71.9274 64.7759 72.0051C64.676 72.1022 64.6397 72.2285 64.6579 72.3742C64.6942 72.5781 64.8666 72.8597 65.1661 73.2191C65.6744 73.8212 66.101 74.1805 66.4277 74.2777C66.6365 74.3456 66.8271 74.2971 66.9723 74.1514C67.0358 74.0834 67.1084 73.9475 67.1901 73.7435Z" fill="black"/>
<path d="M71.7275 72.9559L71.6368 72.8879C71.8455 72.4314 71.9635 72.0041 71.9998 71.6059C72.0452 71.2077 71.9998 70.829 71.8818 70.4696C71.7638 70.12 71.5823 69.7801 71.3191 69.4596C71.2828 69.6636 71.2374 69.8189 71.192 69.9452C71.1376 70.0715 71.0831 70.188 70.9924 70.3045C70.7382 70.6542 70.3933 70.8484 69.9758 70.8775C69.5584 70.9164 69.1499 70.7513 68.7324 70.4017C68.442 70.1589 68.2333 69.8675 68.079 69.5373C67.9338 69.2071 67.8884 68.8672 67.9337 68.5176C67.9791 68.1679 68.0971 67.8669 68.2877 67.6046C68.4874 67.3327 68.7597 67.1385 69.0864 67.0219C69.4131 66.9054 69.7671 66.886 70.1483 66.9831C70.5386 67.0705 70.9016 67.2744 71.2556 67.5755C71.7184 67.964 72.0724 68.4593 72.3175 69.0517C72.5625 69.6538 72.6351 70.2948 72.5444 70.9747C72.4536 71.6351 72.1813 72.2955 71.7275 72.9559ZM71.0922 69.1682C70.8653 68.9449 70.6656 68.7506 70.4841 68.5953C70.0938 68.2651 69.6945 67.9931 69.277 67.8086C69.0501 67.7018 68.8504 67.6726 68.678 67.7018C68.5872 67.7115 68.5146 67.7697 68.442 67.8669C68.3603 67.9834 68.3422 68.1097 68.3785 68.2456C68.4329 68.4496 68.6508 68.7021 69.0047 69.0031C69.5947 69.5082 70.0666 69.7898 70.4024 69.8189C70.6293 69.8481 70.8018 69.7801 70.9197 69.615C70.9924 69.5276 71.0468 69.3722 71.0922 69.1682Z" fill="black"/>
<path d="M76.0751 66.4582L72.8077 62.6123L72.2359 63.7C72.0181 64.1273 71.9001 64.4672 71.891 64.7489C71.882 64.9431 71.9546 65.1471 72.0998 65.3607L72.0181 65.4967L70.7021 64.2147L72.3358 61.1069L76.3837 65.856L76.0751 66.4582Z" fill="black"/>
<path d="M12.062 45.4914C12.062 27.4954 25.6942 12.9082 42.512 12.9082C59.3298 12.9082 72.9619 27.4954 72.9619 45.4914C72.9619 63.4875 59.3298 78.0747 42.512 78.0747C25.6942 78.0747 12.062 63.4875 12.062 45.4914Z" fill="black"/>
<path d="M6.48058 46.1403C6.58041 45.5673 6.71656 45.1594 6.889 44.9263C7.12498 44.5864 7.44263 44.4019 7.84198 44.3922C8.25947 44.3727 8.61344 44.5378 8.90387 44.8875C9.24875 45.3148 9.44843 45.9558 9.47566 46.8007L9.59364 49.8308L9.44843 49.8405C9.43028 49.5589 9.40305 49.3743 9.34859 49.2772C9.29414 49.1801 9.23061 49.1121 9.158 49.083C9.08539 49.0441 8.88572 49.0344 8.58621 49.0441L4.96489 49.2092C4.66538 49.2189 4.47478 49.2481 4.40218 49.2966C4.32957 49.3355 4.26604 49.4132 4.22066 49.5103C4.17528 49.6171 4.1662 49.8016 4.17528 50.0736L4.02098 50.0833L3.91207 47.2183C3.88484 46.5385 3.92115 46.0432 4.02098 45.7615C4.12082 45.4605 4.28419 45.2371 4.50201 45.0623C4.71984 44.8875 4.95581 44.7903 5.20994 44.7806C5.48222 44.7709 5.72727 44.8583 5.9451 45.0623C6.16292 45.2565 6.33536 45.6158 6.48058 46.1403ZM6.4352 47.7524C6.41705 47.3348 6.37167 47.0338 6.27183 46.8298C6.17199 46.6356 6.04493 46.4899 5.88156 46.3831C5.71819 46.2957 5.50945 46.2374 5.2644 46.2568C5.01934 46.2763 4.81967 46.3345 4.66538 46.4414C4.51109 46.5482 4.40218 46.7036 4.32957 46.8978C4.24788 47.1018 4.22066 47.4125 4.23881 47.8399L6.4352 47.7524ZM6.76193 47.733L8.5499 47.6553H8.74958C8.90387 47.6456 9.01278 47.6068 9.08539 47.5194C9.158 47.432 9.18522 47.3057 9.18522 47.1503C9.17615 46.9075 9.11261 46.7036 9.01278 46.5093C8.91294 46.3151 8.75865 46.1694 8.56806 46.0723C8.37746 45.9752 8.16871 45.9363 7.94181 45.946C7.67861 45.9558 7.45171 46.0334 7.25204 46.1694C7.04329 46.3054 6.90715 46.4899 6.83454 46.723C6.76193 46.9464 6.73471 47.2863 6.76193 47.733Z" fill="black"/>
<path d="M4.50223 40.2945L6.76216 40.6344L6.78031 40.5178C6.82569 40.1391 6.75308 39.8574 6.55341 39.6535C6.35373 39.4398 6.04515 39.2941 5.62766 39.1776L5.65488 39.0222L8.55012 39.469L8.5229 39.6341C8.20524 39.6243 7.93296 39.6535 7.72421 39.7409C7.51546 39.8186 7.35209 39.9351 7.27041 40.0711C7.17057 40.2071 7.11612 40.4207 7.07982 40.7024L8.64088 40.9452C8.94947 40.9937 9.13099 41.0034 9.2036 40.984C9.26713 40.9646 9.33974 40.9257 9.38512 40.8578C9.43957 40.7898 9.48495 40.6732 9.5031 40.4984L9.55756 40.1391C9.63017 39.5855 9.56664 39.129 9.37604 38.76C9.18544 38.3909 8.84963 38.0899 8.38676 37.8762L8.40491 37.7111L10.1293 38.2453L9.44865 43.3634L9.29436 43.344L9.32158 43.1497C9.34881 42.9749 9.33066 42.839 9.29436 42.7224C9.26713 42.6447 9.21267 42.5767 9.12191 42.5185C9.05838 42.4699 8.89501 42.4311 8.61366 42.3922L4.97418 41.8289C4.72913 41.7901 4.56576 41.7804 4.51131 41.7804C4.41147 41.7901 4.32979 41.8386 4.26626 41.9066C4.1755 42.0037 4.12104 42.1494 4.09381 42.334L4.06658 42.5379L3.91229 42.5185L4.57484 37.5654L6.20852 37.8179L6.19037 37.983C5.77287 38.0122 5.47336 38.0802 5.28277 38.2064C5.09217 38.3327 4.9288 38.5269 4.81082 38.7988C4.73821 38.9542 4.67468 39.2553 4.61114 39.702L4.50223 40.2945Z" fill="black"/>
<path d="M6.92545 29.0869L7.07067 29.1355C7.03436 29.3297 7.03436 29.4851 7.08882 29.6211C7.15235 29.8056 7.38833 30.1261 7.76952 30.6117L9.29429 32.5346L10.574 33.0008C10.8463 33.0979 11.0187 33.1465 11.1004 33.1368C11.1821 33.127 11.2547 33.0882 11.3273 33.0202C11.409 32.9522 11.4725 32.8454 11.5179 32.69L11.6177 32.3695L11.763 32.4278L10.7464 35.6036L10.6012 35.555L10.7011 35.2539C10.7555 35.0888 10.7737 34.9529 10.7464 34.8363C10.7374 34.7489 10.692 34.6712 10.6194 34.5935C10.5649 34.545 10.4106 34.4673 10.1384 34.3702L9.07646 33.9817L6.38997 34.477C5.85449 34.5838 5.53683 34.6712 5.41884 34.7586C5.30993 34.8363 5.21009 34.9723 5.15563 35.1374L5.00134 35.0888L5.87264 32.3792L6.01785 32.4375L5.98155 32.5541C5.92709 32.7192 5.91802 32.8357 5.93617 32.9231C5.9634 33.0105 5.9997 33.0493 6.04508 33.0785C6.14492 33.1173 6.40812 33.0882 6.86192 33.0008L8.94032 32.622L7.66968 31.0196C7.3611 30.6214 7.14328 30.4077 7.01621 30.3592C6.94361 30.33 6.88007 30.3495 6.79839 30.398C6.70763 30.466 6.60779 30.6311 6.51703 30.8739L6.37182 30.8156L6.92545 29.0869Z" fill="black"/>
<path d="M11.2364 25.3573L14.3585 24.8912C14.7942 24.8232 15.1118 24.7358 15.3296 24.6095C15.4749 24.5221 15.5928 24.4056 15.6745 24.2502L15.8107 24.3376L14.3222 27.0181L14.1951 26.9404C14.2678 26.7558 14.3131 26.6393 14.3041 26.5616C14.295 26.4839 14.2587 26.4354 14.2133 26.4062C14.1225 26.3479 13.8684 26.3382 13.46 26.3965L11.427 26.6976L11.4633 26.9792L12.7793 27.8144C13.0243 27.9698 13.1968 28.0475 13.2694 28.0669C13.3511 28.0766 13.4328 28.0475 13.5235 27.9893C13.6234 27.931 13.7141 27.8047 13.823 27.6202L13.9501 27.7076L12.5161 30.3007L12.3799 30.2133L12.4707 30.0384C12.5524 29.883 12.5978 29.7471 12.5978 29.6305C12.5978 29.5528 12.5705 29.4655 12.5161 29.3683C12.4707 29.3101 12.3346 29.2032 12.0895 29.0478L8.93107 27.0472C8.68602 26.8918 8.52265 26.8044 8.45004 26.7947C8.37743 26.785 8.28667 26.8044 8.19591 26.8627C8.10515 26.9209 8.01439 27.0181 7.93271 27.1637L7.83287 27.3385L7.70581 27.2511L9.12167 24.6872L9.24873 24.7649C9.15797 24.9397 9.10351 25.0854 9.10351 25.2117C9.10351 25.2894 9.12167 25.3865 9.1852 25.4739C9.23058 25.5419 9.36672 25.6487 9.61177 25.8041L11.1093 26.7461L10.719 23.9297C10.6646 23.5412 10.5829 23.2984 10.4558 23.2304C10.3651 23.1722 10.2652 23.1819 10.1563 23.2596C10.1019 23.2984 10.002 23.4247 9.87497 23.6383L9.73883 23.5606L10.8552 21.5503L10.9822 21.628C10.8915 21.8222 10.8461 21.9776 10.837 22.1136C10.828 22.2495 10.8643 22.5895 10.9369 23.1333L11.2364 25.3573Z" fill="black"/>
<path d="M13.6871 18.4711L15.3753 20.1027L15.4479 20.0153C15.6839 19.7336 15.7746 19.452 15.7111 19.1606C15.6566 18.879 15.4751 18.5682 15.1937 18.2186L15.2936 18.0923L17.4627 20.1901L17.3538 20.3163C17.0906 20.1124 16.8547 19.9861 16.6368 19.9181C16.419 19.8599 16.2284 19.8599 16.0832 19.9181C15.938 19.9764 15.7746 20.1124 15.5931 20.326L16.7639 21.4526C16.9908 21.676 17.1451 21.7925 17.2086 21.8217C17.2812 21.8508 17.3538 21.8508 17.4264 21.8314C17.5172 21.8022 17.608 21.7343 17.7078 21.608L17.9347 21.3458C18.2796 20.9282 18.4702 20.5106 18.5065 20.0832C18.5337 19.6656 18.4157 19.2189 18.1344 18.7624L18.2433 18.6459L19.3869 20.1221L16.1558 23.9583L16.0469 23.8514L16.174 23.7058C16.2829 23.5795 16.3464 23.4533 16.3736 23.3367C16.3918 23.2493 16.3827 23.1619 16.3373 23.0648C16.3101 22.9871 16.1921 22.8511 15.9834 22.6569L13.2515 20.025C13.0609 19.8405 12.9429 19.7336 12.8884 19.7045C12.7977 19.6559 12.7069 19.6462 12.6252 19.6656C12.4982 19.6948 12.3711 19.7822 12.2531 19.9279L12.1261 20.0735L12.0172 19.9667L15.1484 16.2471L16.3736 17.4319L16.2647 17.5582C15.9108 17.3348 15.6203 17.2183 15.3934 17.1988C15.1665 17.1794 14.9396 17.2571 14.7036 17.4028C14.5584 17.4805 14.3497 17.7039 14.0683 18.0341L13.6871 18.4711Z" fill="black"/>
<path d="M18.4516 13.13L22.7355 14.3051L21.2833 12.2559C21.0836 11.9646 20.9021 11.8092 20.7569 11.7703C20.5572 11.7218 20.3303 11.7995 20.0944 12.0034L19.9945 11.8772L21.4648 10.6826L21.5647 10.8089C21.3922 10.9837 21.2924 11.1197 21.2561 11.2168C21.2198 11.3042 21.2107 11.4207 21.247 11.5373C21.2742 11.6538 21.3741 11.8286 21.5284 12.0617L24.3328 16.0338L24.2239 16.1213L18.4062 14.5868L20.5482 17.6169C20.7387 17.8888 20.9293 18.0248 21.1109 18.0345C21.3015 18.0345 21.4648 17.9665 21.6191 17.85L21.728 17.7723L21.8188 17.8985L20.2305 19.1805L20.1397 19.0542C20.3848 18.8503 20.5209 18.6658 20.5391 18.4812C20.5663 18.2967 20.4846 18.083 20.3031 17.8305L17.9252 14.4605L17.7437 14.4217C17.5531 14.3731 17.4169 14.3537 17.3171 14.3731C17.2173 14.3925 17.0993 14.4508 16.9631 14.5576L16.8724 14.4314L18.4516 13.13Z" fill="black"/>
<path d="M27.7003 7.21533L28.3719 8.6624L28.2358 8.7401C27.9998 8.44874 27.8092 8.2545 27.6458 8.15738C27.4825 8.06026 27.301 8.01171 27.0922 8.02142C26.9742 8.02142 26.8018 8.0894 26.5658 8.20594L26.1937 8.40018L28.0996 12.5374C28.2267 12.8094 28.3175 12.9745 28.381 13.0327C28.4355 13.0813 28.5262 13.1201 28.6261 13.1299C28.735 13.1396 28.853 13.1007 28.9982 13.023L29.1706 12.9356L29.2341 13.0813L26.6112 14.4604L26.5477 14.305L26.7201 14.2273C26.8562 14.1496 26.9651 14.0525 27.0287 13.9554C27.0831 13.8874 27.1013 13.7903 27.0922 13.6834C27.0922 13.6057 27.0287 13.4309 26.9016 13.159L24.9957 9.02174L24.6326 9.20626C24.2877 9.39079 24.079 9.58503 23.9973 9.82782C23.8884 10.158 23.8884 10.5271 24.0154 10.9544L23.8702 11.0224L23.1986 9.57532L27.7003 7.21533Z" fill="black"/>
<path d="M32.2383 5.52548L35.07 4.92335L35.0972 5.07873L34.952 5.10786C34.7433 5.14671 34.598 5.20498 34.5254 5.27296C34.4528 5.34094 34.4074 5.40893 34.3893 5.50605C34.3711 5.59346 34.3893 5.79741 34.4528 6.14703L34.9883 9.02173C35.0881 9.54617 35.188 9.88609 35.2878 10.0415C35.3967 10.1969 35.5419 10.3134 35.7416 10.3814C35.9322 10.4591 36.15 10.4688 36.4132 10.4202C36.7127 10.3523 36.9487 10.2357 37.1302 10.0415C37.3118 9.85695 37.4388 9.62387 37.4933 9.34223C37.5568 9.07029 37.5205 8.62356 37.4116 8.002L36.976 5.61288C36.9215 5.35066 36.867 5.16614 36.7944 5.06902C36.7218 4.9719 36.6401 4.90392 36.5585 4.87479C36.4223 4.83594 36.2499 4.83593 36.023 4.88449L35.9957 4.7291L37.8836 4.33092L37.9108 4.49602L37.8019 4.51544C37.6476 4.55428 37.5296 4.61256 37.4388 4.69996C37.3481 4.78737 37.2936 4.89421 37.2664 5.03988C37.2482 5.14671 37.2573 5.31182 37.3027 5.5449L37.7202 7.76891C37.8472 8.46816 37.8926 8.97319 37.8654 9.29368C37.8382 9.61417 37.6839 9.94437 37.4025 10.2649C37.1212 10.5951 36.6946 10.8184 36.1319 10.9447C35.6509 11.0418 35.2787 11.0515 34.9883 10.9738C34.598 10.867 34.3076 10.6825 34.1079 10.4202C33.9083 10.158 33.763 9.78898 33.6814 9.30338L33.1459 6.42867C33.0823 6.08876 33.0279 5.88481 32.9734 5.80711C32.9281 5.73913 32.8464 5.68087 32.7556 5.65174C32.6649 5.6226 32.5015 5.63231 32.2655 5.68087L32.2383 5.52548ZM33.9446 3.35974C34.0989 3.32089 34.235 3.35974 34.3621 3.44714C34.4891 3.54426 34.5617 3.6608 34.589 3.8259C34.6162 3.98129 34.589 4.12697 34.5073 4.26293C34.4165 4.3989 34.2985 4.47659 34.1624 4.50573C34.0081 4.54458 33.872 4.51544 33.7449 4.42803C33.6178 4.34063 33.5452 4.21437 33.5089 4.05898C33.4817 3.90359 33.5089 3.75791 33.5906 3.62195C33.6904 3.47627 33.7994 3.38887 33.9446 3.35974ZM35.4603 3.03925C35.6146 3.01011 35.7507 3.03924 35.8778 3.12665C36.0048 3.21406 36.0774 3.34032 36.1047 3.4957C36.1319 3.65109 36.1047 3.79677 36.0139 3.93273C35.9322 4.0687 35.8142 4.14639 35.669 4.18524C35.5238 4.21437 35.3877 4.18524 35.2606 4.09783C35.1335 4.01043 35.0518 3.88417 35.0246 3.72878C34.9974 3.57339 35.0246 3.42772 35.1063 3.29175C35.1971 3.15578 35.315 3.06838 35.4603 3.03925Z" fill="black"/>
<path d="M41.6776 4.1377L44.4277 7.85733L44.4367 5.2837C44.4367 4.93407 44.3913 4.69127 44.2915 4.56502C44.1644 4.39021 43.9466 4.31252 43.629 4.31252V4.14742L45.4805 4.15712V4.32222C45.2445 4.35136 45.0811 4.39021 45.0085 4.44848C44.9268 4.49704 44.8633 4.58444 44.8179 4.70098C44.7725 4.81753 44.7453 5.02148 44.7453 5.29341L44.7272 10.2756H44.5819L40.8154 5.29341L40.8063 9.09074C40.8063 9.44037 40.8789 9.67346 41.0332 9.79C41.1784 9.90654 41.3418 9.97452 41.5324 9.97452H41.6595V10.1396H39.6809V9.97452C39.9895 9.97452 40.1982 9.90654 40.3162 9.77057C40.4342 9.64432 40.4978 9.41123 40.5068 9.09074L40.525 4.87581L40.3979 4.70098C40.2799 4.54559 40.171 4.43877 40.0803 4.39021C39.9895 4.34165 39.8624 4.31251 39.69 4.30279V4.1377H41.6776Z" fill="black"/>
<path d="M49.1559 10.6434L49.1287 10.8085L46.2426 10.3132L46.2698 10.1481L46.4513 10.1772C46.6147 10.2064 46.7508 10.1967 46.8506 10.1481C46.9233 10.1093 46.9959 10.0607 47.0412 9.96358C47.0866 9.8956 47.132 9.71108 47.1683 9.41972L47.7492 5.52528C47.7945 5.23392 47.8127 5.03968 47.7945 4.96199C47.7764 4.87458 47.731 4.80659 47.6403 4.7289C47.5586 4.66091 47.4406 4.60265 47.2863 4.58322L47.1048 4.55409L47.132 4.38899L50.0182 4.87458L49.9909 5.03968L49.8094 5.01055C49.6461 4.99112 49.5099 4.99112 49.4101 5.03968C49.3375 5.06882 49.2649 5.12709 49.2195 5.22421C49.1741 5.29219 49.1287 5.467 49.0924 5.76807L48.5025 9.65281C48.4571 9.95388 48.448 10.1481 48.4662 10.2258C48.4843 10.3035 48.5297 10.3812 48.6205 10.4589C48.7021 10.5269 48.8201 10.5754 48.9744 10.6046L49.1559 10.6434ZM48.8292 2.92249C48.9926 2.95163 49.1196 3.03904 49.2195 3.18472C49.3193 3.32068 49.3556 3.48578 49.3284 3.67031C49.3012 3.84512 49.2195 3.98109 49.0833 4.09763C48.9472 4.20446 48.7929 4.24331 48.6295 4.21417C48.4752 4.18503 48.3391 4.09764 48.2393 3.95196C48.1394 3.80628 48.1122 3.65089 48.1304 3.46637C48.1576 3.29156 48.2393 3.15558 48.3754 3.04875C48.5025 2.9225 48.6568 2.89336 48.8292 2.92249Z" fill="black"/>
<path d="M57.2065 7.11809L57.1611 7.28319C56.9523 7.24434 56.7527 7.30262 56.5439 7.43858C56.3896 7.54541 56.1264 7.80763 55.7543 8.25438L52.614 11.9643L52.487 11.9255L52.0241 6.76846C51.9696 6.14691 51.9152 5.77786 51.8698 5.65161C51.8244 5.53507 51.6974 5.41851 51.4977 5.32139L51.5431 5.16602L54.0934 6.04978L54.048 6.19547L53.9663 6.17604C53.7394 6.09835 53.567 6.0692 53.4672 6.10805C53.3946 6.12747 53.3492 6.17604 53.3219 6.26344C53.3038 6.312 53.2947 6.37998 53.2947 6.45768C53.2947 6.53537 53.3129 6.73932 53.3401 7.07924L53.6215 10.3036L55.4367 8.14754C55.6545 7.88532 55.7906 7.71051 55.8451 7.61339C55.9086 7.51627 55.954 7.43858 55.9721 7.36089C55.9994 7.27348 55.9994 7.19579 55.9721 7.11809C55.954 7.0404 55.9086 6.97241 55.836 6.90443C55.7362 6.81702 55.591 6.73933 55.4094 6.68106L55.4548 6.52567L57.2065 7.11809Z" fill="black"/>
<path d="M60.5282 9.29418L59.43 11.4308L59.5299 11.4891C59.8475 11.6736 60.1198 11.693 60.3649 11.5667C60.6099 11.4405 60.855 11.1783 61.1 10.8092L61.2361 10.8869L59.8294 13.6354L59.6932 13.5577C59.8203 13.2372 59.8748 12.9652 59.8838 12.7127C59.8929 12.4699 59.8475 12.2757 59.7568 12.1397C59.666 12.0038 59.5026 11.8678 59.2757 11.7318L58.5224 13.2081C58.3772 13.4994 58.2955 13.6742 58.2864 13.7616C58.2774 13.8393 58.2955 13.917 58.3409 13.9947C58.3863 14.0724 58.477 14.1501 58.6132 14.2375L58.9036 14.4123C59.3665 14.6842 59.7931 14.7814 60.1833 14.7231C60.5827 14.6551 60.9548 14.4317 61.3088 14.0335L61.4449 14.1112L60.3649 15.6457L56.1354 13.1595L56.208 13.0235L56.3714 13.1206C56.5166 13.208 56.6437 13.2469 56.7526 13.2372C56.8343 13.2372 56.916 13.208 56.9886 13.1401C57.0521 13.0915 57.1429 12.9361 57.279 12.6739L59.0398 9.22619C59.1577 8.98339 59.2304 8.83771 59.2485 8.77944C59.2667 8.67261 59.2576 8.57549 59.2213 8.4978C59.1668 8.37155 59.0579 8.26472 58.8945 8.1676L58.7402 8.06077L58.8129 7.9248L62.9152 10.3333L62.1165 11.8872L61.9804 11.8095C62.1074 11.3919 62.1437 11.0617 62.1074 10.8092C62.0711 10.5761 61.9441 10.3528 61.7535 10.1391C61.6446 10.0129 61.3995 9.83804 61.0274 9.62438L60.5282 9.29418Z" fill="black"/>
<path d="M64.6397 15.6262L63.6413 16.9178C63.4507 17.1704 63.3418 17.3355 63.3146 17.4229C63.2873 17.5103 63.3055 17.6074 63.3418 17.7045C63.3872 17.8113 63.5052 17.9473 63.6958 18.1221L63.5959 18.2484L61.3995 16.2963L61.4994 16.17C61.699 16.3448 61.8443 16.4517 61.9441 16.4711C62.053 16.5002 62.1347 16.4905 62.2164 16.4517C62.2981 16.4031 62.4251 16.2672 62.6248 16.0147L64.9392 13.0331C65.1298 12.7806 65.2387 12.6058 65.2568 12.5281C65.275 12.4407 65.2659 12.3436 65.2296 12.2367C65.1842 12.1299 65.0662 11.9939 64.8666 11.8191L64.9664 11.6929L66.954 13.4799C67.4805 13.9363 67.8253 14.3151 68.0159 14.6064C68.1975 14.8978 68.2791 15.2183 68.2701 15.5582C68.261 15.8981 68.1521 16.2089 67.9252 16.4905C67.662 16.8304 67.3352 17.0053 66.9359 17.0247C66.6818 17.0344 66.4004 16.9567 66.0737 16.8013L65.9012 19.2778C65.8831 19.5983 65.8831 19.812 65.9012 19.9091C65.9375 20.0548 66.0011 20.181 66.11 20.2976L66.0101 20.4238L64.6578 19.2196L64.9029 15.8884L64.6397 15.6262ZM66.3913 13.373L64.8303 15.3834L65.0118 15.5485C65.3113 15.8107 65.5473 15.9758 65.7379 16.0438C65.9285 16.1118 66.1191 16.1118 66.3278 16.0341C66.5275 15.9564 66.7181 15.801 66.9087 15.5582C67.1809 15.2086 67.308 14.8784 67.2808 14.5676C67.2536 14.2665 67.072 13.9655 66.7362 13.6644L66.3913 13.373Z" fill="black"/>
<path d="M73.18 20.0542L71.7823 21.375L71.6734 21.2391C71.9729 20.8506 72.1363 20.433 72.1544 19.9862C72.1726 19.5395 72.0637 19.1607 71.8277 18.8694C71.6462 18.6363 71.4465 18.51 71.2196 18.4809C70.9927 18.4518 70.8203 18.5003 70.666 18.6363C70.5752 18.7237 70.5026 18.8208 70.4754 18.9374C70.4209 19.0927 70.4118 19.287 70.43 19.5201C70.4391 19.6852 70.5117 20.0445 70.6387 20.5884C70.8203 21.3459 70.8656 21.9189 70.8021 22.2977C70.7295 22.6764 70.548 22.9969 70.2666 23.2494C69.9127 23.5796 69.4861 23.7059 68.996 23.6379C68.5059 23.5796 68.0702 23.3174 67.7163 22.8512C67.6074 22.7153 67.5075 22.5696 67.444 22.4142C67.3714 22.2588 67.2897 22.0549 67.2171 21.7926C67.1808 21.647 67.1263 21.5401 67.0719 21.4722C67.0265 21.4139 66.9539 21.375 66.8631 21.3459C66.7724 21.3168 66.6635 21.3265 66.5455 21.3653L66.4547 21.2391L68.0612 19.7823L68.161 19.9085C67.7798 20.4136 67.5801 20.9186 67.5711 21.4139C67.562 21.9092 67.68 22.3268 67.9341 22.6473C68.1338 22.8998 68.3516 23.0455 68.5966 23.0746C68.8417 23.1134 69.0504 23.0455 69.2229 22.8998C69.3227 22.8124 69.4044 22.6958 69.4498 22.5502C69.5042 22.4045 69.5224 22.2394 69.5133 22.0451C69.5042 21.8509 69.4498 21.5401 69.35 21.1225C69.2138 20.5301 69.1412 20.0931 69.1321 19.7823C69.1231 19.4812 69.1594 19.1996 69.2501 18.9568C69.3318 18.714 69.477 18.5003 69.6767 18.3158C70.0125 18.0147 70.4118 17.8788 70.8656 17.937C71.3104 17.9856 71.7006 18.2187 72.0183 18.6266C72.1363 18.7722 72.227 18.9374 72.3087 19.1025C72.3632 19.2287 72.4176 19.4035 72.463 19.6172C72.5175 19.8308 72.5719 19.9668 72.6173 20.0251C72.6627 20.0834 72.7171 20.1125 72.7807 20.1125C72.8351 20.1125 72.944 20.0834 73.0983 19.9862L73.18 20.0542Z" fill="black"/>
<path d="M71.2922 27.6977L71.1651 27.7851L69.595 25.1531L69.722 25.0657L69.8219 25.2406C69.9036 25.3862 70.0034 25.4931 70.1123 25.5416C70.1849 25.5805 70.2666 25.5902 70.3664 25.5805C70.43 25.5708 70.5933 25.4834 70.8293 25.3183L73.9242 23.2108C74.1693 23.0457 74.3054 22.9291 74.3508 22.8611C74.3962 22.7932 74.4143 22.696 74.4143 22.5795C74.4143 22.4727 74.3689 22.3464 74.2873 22.2007L74.1783 22.0356L74.3054 21.9482L75.8756 24.5801L75.7485 24.6675L75.6396 24.5024C75.5579 24.3568 75.4581 24.2597 75.3582 24.2014C75.2856 24.1528 75.2039 24.1431 75.095 24.1625C75.0224 24.1723 74.8681 24.2597 74.6321 24.415L71.5282 26.5322C71.2831 26.6973 71.147 26.8139 71.1016 26.8818C71.0562 26.9498 71.0381 27.047 71.0471 27.1538C71.0471 27.2703 71.1016 27.3966 71.1833 27.5423L71.2922 27.6977ZM76.4837 22.2979C76.5744 22.4533 76.6016 22.6184 76.5653 22.7932C76.529 22.968 76.4383 23.1039 76.3021 23.2011C76.1569 23.2982 76.0117 23.3273 75.8483 23.2885C75.685 23.2496 75.5579 23.1525 75.4671 23.0068C75.3764 22.8612 75.3492 22.6961 75.3855 22.5212C75.4127 22.3464 75.5125 22.2105 75.6487 22.1133C75.7848 22.0162 75.9391 21.9871 76.1025 22.0259C76.2567 22.0551 76.3838 22.1522 76.4837 22.2979Z" fill="black"/>
<path d="M78.8252 31.0782L77.4548 31.7386L77.3912 31.5832C77.6726 31.3501 77.8632 31.1462 77.963 30.9714C78.0538 30.7966 78.1082 30.6023 78.1082 30.379C78.1082 30.2527 78.0628 30.0682 77.9539 29.806L77.7815 29.3981L73.8516 31.2822C73.5884 31.4084 73.4341 31.4958 73.3796 31.5638C73.3252 31.6221 73.2979 31.7095 73.2798 31.826C73.2707 31.9426 73.2979 32.0785 73.3615 32.2242L73.4341 32.4087L73.2979 32.4767L72.0999 29.6117L72.2361 29.5534L72.3177 29.7283C72.3813 29.8934 72.4539 30.0002 72.5537 30.0779C72.6172 30.1265 72.6989 30.1556 72.8078 30.1556C72.8804 30.1556 73.0438 30.0973 73.2979 29.9711L77.2279 28.087L77.0645 27.6888C76.9102 27.3197 76.7287 27.0866 76.5108 26.9895C76.2113 26.8536 75.8664 26.8438 75.458 26.9701L75.3945 26.8147L76.7741 26.1543L78.8252 31.0782Z" fill="black"/>
<path d="M79.6603 35.3308L77.4458 35.9038L77.473 36.0203C77.5547 36.3894 77.7271 36.6225 77.9722 36.739C78.2263 36.8458 78.5712 36.8653 79.0068 36.807L79.0432 36.9624L76.1933 37.7102L76.157 37.5451C76.4565 37.4286 76.7015 37.2926 76.8649 37.1275C77.0374 36.9624 77.1463 36.807 77.1826 36.6419C77.2189 36.4768 77.2098 36.2631 77.1372 35.9815L75.6124 36.3797C75.3129 36.4574 75.1314 36.5156 75.0679 36.5545C75.0134 36.603 74.959 36.671 74.9408 36.7487C74.9136 36.8361 74.9227 36.9527 74.959 37.1275L75.0316 37.4674C75.1586 38.0113 75.3764 38.4192 75.685 38.6814C75.9936 38.9533 76.402 39.0893 76.9194 39.1087L76.9557 39.2641L75.1677 39.4486L74.0332 34.4276L74.1784 34.3887L74.2238 34.583C74.2692 34.7578 74.3236 34.884 74.4053 34.9714C74.4598 35.0394 74.5415 35.0783 74.6413 35.088C74.7139 35.1074 74.8863 35.0783 75.1496 35.0006L78.7164 34.0683C78.9615 34.01 79.1158 33.9614 79.1702 33.9226C79.2519 33.874 79.3154 33.806 79.3427 33.7089C79.3971 33.5827 79.3971 33.4273 79.3517 33.233L79.3064 33.0388L79.4606 32.9902L80.5588 37.8559L78.9524 38.2735L78.9252 38.1084C79.2973 37.9239 79.5514 37.7393 79.6875 37.5451C79.8237 37.3509 79.9054 37.1081 79.9235 36.8167C79.9326 36.6419 79.8963 36.3408 79.7965 35.8941L79.6603 35.3308Z" fill="black"/>
<path d="M81.3211 44.4124L79.4696 44.6066L79.4514 44.4221C79.9143 44.3056 80.2774 44.0725 80.5406 43.7229C80.8038 43.3635 80.9218 42.9945 80.9036 42.6157C80.8854 42.3146 80.7947 42.0816 80.6404 41.9165C80.477 41.7514 80.2955 41.6737 80.1049 41.6931C79.9869 41.7028 79.878 41.7416 79.7873 41.7999C79.6602 41.897 79.5422 42.0427 79.4333 42.2467C79.3425 42.3923 79.2064 42.7128 79.0067 43.2373C78.7254 43.956 78.4622 44.4512 78.1899 44.7135C77.9176 44.9757 77.5999 45.1214 77.2369 45.1505C76.7649 45.1796 76.3565 45.0145 75.9935 44.6552C75.6305 44.2861 75.4308 43.8103 75.3945 43.2081C75.3854 43.0236 75.3945 42.8391 75.4126 42.674C75.4399 42.5089 75.4943 42.2952 75.576 42.033C75.6214 41.8873 75.6395 41.7708 75.6395 41.6737C75.6395 41.6057 75.6032 41.5183 75.5397 41.4406C75.4852 41.3629 75.3945 41.2852 75.2856 41.256L75.2765 41.0909L77.373 40.9356L77.3821 41.1007C76.8013 41.2755 76.3656 41.5474 76.0752 41.9359C75.7847 42.3243 75.6577 42.742 75.6849 43.1693C75.7031 43.4995 75.8029 43.752 75.9844 43.9365C76.1569 44.1211 76.3656 44.1987 76.5834 44.189C76.7105 44.1696 76.8376 44.1308 76.9555 44.0434C77.0735 43.9657 77.1824 43.8394 77.2823 43.684C77.3821 43.5189 77.5092 43.2373 77.6635 42.8391C77.8813 42.2758 78.0719 41.8679 78.2262 41.6251C78.3896 41.3726 78.5711 41.1784 78.7798 41.0327C78.9886 40.8967 79.2245 40.819 79.4877 40.7996C79.9325 40.7607 80.3137 40.9064 80.6586 41.2366C80.9944 41.5571 81.1759 41.9942 81.2122 42.5186C81.2213 42.7128 81.2122 42.8974 81.1759 43.0819C81.1577 43.2178 81.1033 43.3927 81.0216 43.5966C80.949 43.8006 80.9127 43.9462 80.9127 44.0239C80.9127 44.1016 80.949 44.1599 80.9944 44.1987C81.0397 44.2376 81.1487 44.2764 81.3211 44.2959V44.4124Z" fill="black"/>
<path d="M75.5671 49.384L75.4128 49.3743L75.6125 46.2471L75.7577 46.2568L75.7486 46.4607C75.7395 46.6355 75.7577 46.7715 75.803 46.8881C75.8394 46.9658 75.8938 47.0337 75.9936 47.0823C76.0572 47.1211 76.2296 47.1503 76.5019 47.1697L80.1686 47.4319C80.459 47.4513 80.6405 47.4416 80.7132 47.4222C80.7858 47.3931 80.8493 47.3348 80.9128 47.2377C80.9764 47.1406 81.0127 47.0143 81.0217 46.8492L81.0308 46.6453L81.1851 46.655L80.9945 49.7822L80.8402 49.7725L80.8493 49.5782C80.8584 49.4034 80.8402 49.2675 80.7858 49.1509C80.7585 49.0829 80.695 49.0149 80.6042 48.9664C80.5407 48.9275 80.3683 48.8887 80.0869 48.879L76.4202 48.6168C76.1298 48.5973 75.9573 48.5973 75.8757 48.6265C75.803 48.6653 75.7395 48.7236 75.676 48.8207C75.6215 48.9178 75.5852 49.0441 75.5671 49.2092V49.384ZM82.728 48.3254C82.719 48.5099 82.6463 48.6556 82.5193 48.7722C82.3922 48.8887 82.247 48.947 82.0836 48.9275C81.9203 48.9178 81.775 48.8401 81.6661 48.7042C81.5572 48.5682 81.5028 48.4128 81.5118 48.238C81.5209 48.0535 81.5935 47.9078 81.7206 47.7913C81.8477 47.6747 81.9929 47.6164 82.1562 47.6359C82.3196 47.6456 82.4648 47.7233 82.5737 47.8495C82.6917 47.9855 82.7371 48.1506 82.728 48.3254Z" fill="black"/>
<path d="M16.5361 35.3507C19.7853 36.5162 23.2161 35.6906 26.0205 39.42C26.4017 39.925 27.3275 39.6628 28.108 39.8085C27.9719 40.4689 27.9537 40.8379 28.0354 41.3332L27.4455 41.3041C26.5016 40.2746 26.2111 40.1678 25.3761 40.129C25.1492 40.1095 23.5246 40.2164 23.2977 40.2067C21.8365 40.1192 20.0576 38.8859 18.6781 37.837C17.8431 37.2057 16.6723 36.487 15.7374 35.8655C14.7663 34.9817 16.4 35.3022 16.5361 35.3507ZM37.2657 43.6835L37.1749 45.4899C37.1023 46.8593 36.4489 47.51 36.4125 48.2092C36.3944 48.4326 36.7937 48.6948 36.9843 48.9959C37.5289 49.8699 38.9357 51.6764 39.6164 51.7055C39.8251 51.7152 42.6478 51.385 44.1816 51.1616C44.463 51.1228 44.7897 50.6275 45.1709 50.307C45.425 50.103 45.9333 49.8505 46.1965 49.8602C46.4143 49.8699 46.5051 50.0739 46.7229 50.0836C47.3128 50.1127 47.3491 49.3261 47.3491 49.2969C47.3763 48.8405 47.2039 48.9959 46.9135 48.4423C47.2402 48.1315 47.694 47.7139 47.7031 47.4905C47.7122 47.306 47.4943 47.0341 47.222 46.8593C47.213 46.5679 47.2765 46.16 47.1404 45.9269C46.8046 45.3928 46.2055 44.9266 45.8334 44.4119C45.5521 44.0331 45.5793 43.5378 45.2526 43.2562C44.9621 43.0134 44.3994 43.0716 44.0999 42.8483C43.392 42.3141 42.7476 41.6731 42.0487 41.6343C41.8218 41.6246 41.2682 41.8771 41.0413 41.8674C40.8144 41.8577 40.0157 41.4206 39.7888 41.4109L38.2731 41.3235C37.7195 41.275 37.2657 43.6738 37.2657 43.6835ZM46.6049 29.6305L46.3235 35.2925C46.3145 35.4964 46.4597 35.7781 46.6049 35.8752C47.2856 36.2928 48.0117 36.5647 48.7377 37.1086C48.7377 37.1086 48.8557 37.3805 48.4745 37.3514C48.2476 37.3417 48.1115 37.0697 47.9391 36.9435C47.8937 36.9532 47.7757 37.06 47.694 37.196C48.0026 37.5942 48.3021 38.0118 48.6198 38.0312C48.8467 38.0409 48.9556 37.7593 49.1734 37.769C49.4003 37.7787 49.5727 37.9826 49.7906 37.9924C50.3533 38.0312 53.3665 35.8849 53.9927 35.9237C54.2196 35.9335 54.7279 36.5064 55.0819 36.8269C55.1272 36.8172 55.1635 36.7978 55.1817 36.6618C55.1908 36.419 54.6734 35.9043 54.6825 35.6712C54.7097 35.2342 56.8971 34.263 56.9697 34.2339C59.9284 32.68 62.8509 31.3203 65.9186 29.0283L66.2726 29.1254C64.8022 30.6016 62.5695 32.5246 60.8723 33.9328C60.7271 34.0494 60.5093 33.9814 60.3187 33.9814C60.0555 34.3213 60.0373 34.7583 59.8014 35.0205C59.0027 35.9237 57.2601 37.5553 56.9878 37.5359C56.77 37.5262 56.5249 37.264 56.3343 37.128C56.2527 37.1766 56.1437 37.2251 56.1347 37.3902C56.1256 37.633 56.298 37.7884 56.289 38.0215C56.2708 38.3128 55.4721 39.2063 55.0093 39.5754C53.9201 40.4397 52.6313 41.3624 51.5695 42.3044C51.2246 42.6249 51.0612 43.0619 50.7526 43.4116C50.5983 43.5864 50.4713 43.7223 50.208 43.7029C49.5001 43.6641 49.2369 41.9062 48.6651 41.6052L48.5653 41.7023C49.1008 42.9066 49.5546 44.1108 49.9993 45.3151C50.435 44.577 50.5983 43.4213 51.7419 42.9065C52.4589 43.5767 52.0596 44.8975 53.2667 45.6841C53.9837 46.1503 54.9548 46.2474 55.7172 46.4514C56.3434 46.6068 57.0604 46.9855 57.6685 47.1798C60.9903 48.2384 64.9202 48.5297 68.233 50.812C67.4887 51.0354 66.8443 51.0936 66.209 51.1616L61.1628 50.9771C60.3459 51.0257 58.7576 51.2296 58.5307 51.2102C58.3038 51.2005 57.3781 50.7634 57.1603 50.7537C56.9334 50.744 55.6899 51.0548 55.4631 51.0451L53.6206 50.9382L53.3211 51.2199C54.1107 52.7447 55.7444 53.5313 56.8789 54.6385C57.4235 55.1629 57.841 55.9107 58.5035 56.4934C60.2824 58.0667 62.5332 59.2224 64.3757 61.4659C64.1851 61.6407 64.0762 61.6407 63.9491 61.631L52.1503 55.192C51.3698 55.3377 50.798 54.9201 50.2988 55.7068C50.0356 56.1147 49.9539 56.7556 49.6363 57.2121C48.0026 57.5909 46.9135 56.4352 46.8046 58.6495C46.7955 58.8825 46.9861 59.1059 47.0042 59.4167C47.2311 63.0878 47.213 66.856 47.3763 71.0126L47.2039 71.0612C45.062 66.8074 44.6626 62.3788 42.9382 58.0085C42.8474 58.1056 42.7476 58.2027 42.6931 58.261C41.6312 61.6698 41.1048 65.069 39.4893 68.4973C39.335 68.8372 39.3804 69.3519 39.2896 69.8181C39.1898 70.3037 39.0809 71.1 38.6089 71.8478C38.3457 71.5371 38.1733 71.304 38.1824 71.0903L38.5 57.1441C38.373 56.5517 38.6543 55.7165 37.8647 55.3668C37.4018 55.5319 37.6378 56.0273 37.4018 56.4254C37.0388 56.1827 36.4761 56.1729 36.0314 55.4348C36.1857 55.2892 38.1551 53.541 38.7632 53.5702C38.9901 53.5896 42.0941 54.5316 42.321 54.5511C42.5298 54.5608 43.0108 54.4539 43.3829 54.3471C43.5463 54.2986 43.746 54.4928 43.9093 54.4248C45.1527 53.8129 46.8499 53.5702 48.0117 51.8123C47.7666 51.6181 47.5579 51.4724 47.3854 51.4627C47.1585 51.453 45.5884 52.5019 44.6989 52.9097C43.5917 53.4148 42.5116 53.2302 41.4225 53.3662C41.3227 53.4342 41.1502 53.609 41.0413 53.6673C40.8416 53.6964 40.651 53.7838 40.4151 53.7741C40.1791 53.7644 39.7253 53.4925 39.453 53.3468C37.4018 52.2591 35.3507 49.6466 35.4414 47.7528C35.4505 47.5877 35.9134 47.238 35.9497 46.6262C35.9587 46.3834 35.4868 45.0529 35.5049 44.8101C35.514 44.577 36.0223 44.0914 36.3309 43.7126C36.2401 43.6252 36.113 43.5475 36.0223 43.4407C35.9134 41.712 39.5347 38.9635 41.0504 39.0412C41.2773 39.0607 41.6766 39.4297 41.9489 39.556L42.1486 39.3617C42.1213 39.2937 42.0215 39.1966 41.8944 39.1869C41.9035 38.983 42.0034 38.7984 42.0941 38.6916C42.0669 38.6333 41.9852 38.5265 41.8672 38.4391C41.4497 38.8082 40.8598 38.5362 40.3334 38.7305C39.1444 39.1772 37.5924 40.7117 36.4942 41.5178C36.2946 41.6731 36.0041 41.7217 35.7591 41.8771C35.7954 43.5378 34.915 43.8389 34.8606 44.8683C34.8515 45.1111 35.1601 46.092 35.151 46.3348C35.1419 46.5776 34.9059 47.5779 34.8969 47.811C34.8333 49.1221 37.7104 52.9777 37.7104 52.9874C37.7013 53.2594 37.5924 53.3565 37.538 53.4342C35.5413 54.6093 31.5569 56.9305 31.3028 56.911C30.6947 56.8722 29.297 55.3863 29.3424 54.6773C29.3787 53.9781 29.9867 53.4245 30.4587 53.1331C30.5585 53.1137 30.6402 53.1234 30.7219 53.0943C31.1212 52.8029 31.1394 52.6767 31.1575 52.4727C31.1666 52.2299 32.528 51.1033 33.3176 50.2681C33.2178 50.103 33.0272 49.9476 32.882 49.7728C32.8003 49.8117 32.6732 49.9476 32.5553 50.0642C32.2285 49.8699 31.8655 48.9473 31.8836 48.6657L31.9109 48.1024C32.3374 48.3937 32.41 48.9376 32.7549 49.3455C32.8366 49.2872 32.9364 49.2095 32.9455 49.0541C32.9637 48.5006 32.401 48.0344 32.7822 47.578C31.2483 46.5485 29.6963 46.4222 28.1171 45.7036C27.8539 45.5773 27.4545 45.0334 27.2367 45.0237C27.0098 45.014 26.7285 45.1791 26.4925 45.1694L18.0246 42.4598L18.0427 42.0033L30.2863 42.2073C31.094 42.1587 31.9199 42.1393 32.7186 42.0228C32.8185 42.0131 32.9727 41.6829 33.1996 41.7023C33.4265 41.712 33.4629 41.9062 33.6807 41.9159C33.8531 41.9159 33.9257 41.7314 33.9983 41.576C33.835 41.3915 33.6171 41.2458 33.4084 41.2264L33.4356 40.634C33.4447 40.3718 33.7442 40.129 34.0074 39.8765L34.797 40.5077C34.9059 40.4495 35.0784 40.3815 35.0875 40.2067C35.0965 39.9833 35.0512 39.6725 34.9241 39.42C34.5792 38.7984 34.0619 38.138 33.8077 37.5262C33.7351 37.3514 33.835 37.128 33.7805 36.9338C33.6898 36.7007 32.8185 35.0205 32.8366 34.5349C32.8457 34.3019 32.9909 34.2339 33.1633 34.0882C32.8457 33.8357 32.3374 33.2141 31.9562 33.1947C30.613 30.6988 29.1971 28.1154 27.8811 25.6292L28.0354 25.5126C28.108 25.6 28.2714 25.5029 28.4529 25.5418C30.4405 27.7755 32.5462 30.0578 34.4521 32.3595C35.0148 33.0587 35.2962 34.3213 36.3672 35.1954C36.6031 35.3702 36.9662 35.3216 37.1659 35.4964C37.8375 36.0597 38.4274 36.8658 39.0174 37.4679C39.453 37.3125 39.1989 36.9046 39.217 36.6618C39.5438 36.5453 40.052 36.6133 40.4877 36.0306C40.4151 35.9335 40.3515 35.7781 40.1428 35.5256C40.5331 35.545 40.8144 35.3702 41.0867 35.3799C41.0776 35.6227 40.9324 35.9432 41.1593 36.3413C41.241 36.3122 41.3862 36.2054 41.477 36.0306C41.6403 35.7004 41.6857 35.1662 41.8581 34.7098C42.5207 33.0005 43.6098 31.0484 43.9184 29.3488C43.9638 29.038 44.2996 28.6787 44.4539 28.3971C44.6899 27.9406 44.7806 27.4453 44.9349 26.9888C45.189 26.2313 45.425 25.367 45.6882 24.522C46.1602 23.007 46.6866 21.4628 47.213 19.9769C47.458 19.2582 47.6395 18.2482 48.3656 17.7432L46.6049 29.6305ZM37.6106 57.4452C36.5124 59.1545 34.8969 60.6307 33.4719 62.1263C33.0181 62.6216 32.6823 63.418 32.1559 63.9813C30.2772 65.9819 29.3605 67.8757 27.7631 69.7986L27.6179 69.7015C29.7145 65.2341 32.165 60.2033 35.2871 55.8719C36.0586 56.338 36.8482 56.8722 37.6106 57.4452ZM29.8778 56.5614C29.8597 56.9596 29.4513 58.0667 29.1699 58.2124C26.7194 59.4847 24.1237 60.9512 21.3827 62.4274C21.4009 62.1554 21.5007 61.9515 21.537 61.8252C22.9529 60.4461 24.5048 59.1253 25.9752 57.6297C26.3927 57.2121 26.792 56.5323 27.3184 56.0855C27.7359 55.7359 28.5709 55.1435 29.2788 55.1823C29.4603 55.6388 29.8869 56.3186 29.8778 56.5614ZM31.4208 48.1315C31.5932 48.7919 31.7293 49.8991 31.7203 50.1516C31.684 50.9285 28.8069 50.9965 28.6253 51.0159C25.5486 51.3753 22.372 51.89 19.2862 52.2979L19.2408 52.1134C21.8093 50.8314 24.4413 50.2196 27.1369 49.3358C28.0717 49.025 28.9793 48.6171 29.8869 48.2384C30.1683 48.1218 30.6221 47.6362 30.858 47.6459C31.1122 47.6654 31.3572 47.8596 31.4208 48.1315ZM59.1388 43.2659C59.0481 43.3339 58.8847 43.499 58.8393 43.567C57.4235 44.0137 55.5447 45.2277 53.8838 45.0723C53.7477 44.0234 53.2757 42.353 53.2939 42.1102C53.303 41.848 53.6115 41.6343 53.7749 41.4692C53.9927 41.7217 54.1017 41.9159 54.2922 41.9257C54.5191 41.9257 56.0258 41.071 56.8426 40.935C58.0951 40.7117 60.4548 40.6243 60.6727 40.6437L62.0885 40.7214C62.7965 40.7505 65.374 40.3135 65.8006 40.2552L65.846 40.4397C63.7313 41.3818 61.4441 42.3141 59.1388 43.2659ZM24.3324 33.8842L33.0272 38.5654C32.9001 38.9247 32.5462 39.1092 32.2557 39.3714C32.3374 39.6142 32.5643 39.8764 32.8457 40.0998C32.7186 40.566 32.5099 40.9545 32.1741 41.3818C31.8473 41.2458 31.5297 41.0807 31.3028 40.8768C28.8522 38.7013 26.3927 36.2928 23.7788 33.8551L24.3324 33.8842ZM49.9176 36.7395C49.0282 37.128 47.9391 35.9043 46.9498 35.3993L46.977 34.8166C50.4259 31.029 53.9383 27.1539 57.3146 23.4052C57.6594 23.0361 58.1586 22.57 58.6396 22.298L58.7486 22.4437C55.1363 27.1734 53.6569 32.0099 49.9176 36.7395ZM37.2385 19.7535L41.1502 34.7L37.8556 35.5353C37.6923 33.0976 37.6741 30.7667 37.5289 28.4553C37.4744 27.6881 36.948 26.3478 36.9571 26.0953C36.9753 25.8623 37.2657 25.2019 37.2838 24.9591C37.2929 24.7163 36.83 21.2297 36.8482 20.9869L36.9117 19.7341L37.2385 19.7535ZM56.2617 62.0874C56.2527 62.3497 56.3707 62.8838 56.5975 63.0683C56.9424 63.0295 57.0967 62.5536 56.9152 62.0874C58.5035 62.4468 60.709 63.6413 61.671 65.5157L61.5349 65.642C60.4004 64.7485 58.3492 63.6511 56.9152 63.5636C56.6974 63.5539 56.0802 63.486 55.6899 63.6996C53.9655 64.6222 52.4861 66.8171 52.1957 68.3322C52.1503 68.6041 52.232 68.9634 52.2229 69.1965L52.0959 71.8673C50.9432 70.1191 50.7163 68.6235 50.798 67.1765C50.8071 66.9239 50.9432 65.9139 51.1792 65.1855C51.3879 65.1661 52.7766 65.2438 52.8129 64.5931C52.8219 64.3503 52.6676 63.8162 52.6858 63.5734C52.6949 63.3209 52.8038 63.1169 52.9581 62.8353C53.185 62.9712 53.421 63.1557 53.7386 63.35C53.7658 63.3014 53.8112 63.2529 53.8566 63.2043C53.784 63.0975 53.7295 62.9615 53.5843 62.7867C54.265 62.3885 54.8187 62.0098 55.3995 62.0389L56.2617 62.0874Z" fill="#009EE0"/>
<path d="M16.5361 35.3512C19.7853 36.5166 23.2161 35.6911 26.0205 39.4204C26.4017 39.9255 27.3275 39.6633 28.108 39.8089C27.9719 40.4693 27.9537 40.8384 28.0354 41.3337L27.4455 41.3045C26.5016 40.2751 26.2111 40.1683 25.3761 40.1294C25.1492 40.11 23.5246 40.2168 23.2977 40.2071C21.8365 40.1197 20.0576 38.8863 18.6781 37.8374C17.8431 37.2062 16.6723 36.4875 15.7374 35.8659C14.7663 34.9821 16.4 35.3026 16.5361 35.3512ZM56.2617 62.0879C56.2527 62.3501 56.3707 62.8843 56.5976 63.0688C56.9424 63.03 57.0967 62.5541 56.9152 62.0879C58.5035 62.4472 60.709 63.6418 61.671 65.5162L61.5349 65.6424C60.4004 64.7489 58.3492 63.6515 56.9152 63.5641C56.6974 63.5544 56.0802 63.4864 55.69 63.7001C53.9655 64.6227 52.4861 66.8176 52.1957 68.3326C52.1503 68.6046 52.232 68.9639 52.2229 69.197L52.0959 71.8677C50.9432 70.1196 50.7163 68.624 50.798 67.1769C50.8071 66.9244 50.9432 65.9144 51.1792 65.186C51.3879 65.1666 52.7766 65.2442 52.8129 64.5936C52.8219 64.3508 52.6676 63.8166 52.6858 63.5738C52.6949 63.3213 52.8038 63.1174 52.9581 62.8357C53.185 62.9717 53.421 63.1562 53.7386 63.3504C53.7658 63.3019 53.8112 63.2533 53.8566 63.2048C53.784 63.0979 53.7295 62.962 53.5843 62.7871C54.265 62.389 54.8187 62.0102 55.3995 62.0393L56.2617 62.0879Z" fill="#FFDD00"/>
<path d="M59.2117 80.0837C59.2117 80.6081 58.8214 81.0257 58.3313 81.0257C57.8412 81.0257 57.4509 80.6081 57.4509 80.0837C57.4509 79.5592 57.8412 79.1416 58.3313 79.1416C58.8214 79.1416 59.2117 79.5592 59.2117 80.0837Z" fill="black"/>
<path d="M42.5119 0C19.0324 0 0 20.3657 0 45.5C0 70.6246 19.0324 91 42.5119 91C65.9915 91 85.033 70.6343 85.033 45.5C85.033 20.3657 65.9915 0 42.5119 0ZM42.5119 89.8152C19.6404 89.8152 1.0982 69.9739 1.0982 45.5C1.0982 21.0262 19.6404 1.18485 42.5119 1.18485C65.3834 1.18485 83.9348 21.0262 83.9348 45.5C83.9348 69.9739 65.3834 89.8152 42.5119 89.8152Z" fill="black"/>
<path d="M105.481 16.2478V41.0421H100.98V16.2478H105.481ZM101.116 12.3825C101.116 11.0908 102.114 10.0322 103.249 10.0322C104.456 10.0322 105.418 11.1005 105.418 12.3825C105.418 13.6742 104.456 14.7328 103.249 14.7328C102.078 14.7425 101.116 13.6742 101.116 12.3825Z" fill="white"/>
<path d="M108.994 36.1094C109.919 36.663 111.499 37.0612 112.806 37.0612C114.938 37.0612 115.964 35.8861 115.964 34.2642C115.964 32.4578 114.938 31.5837 112.978 30.2143C109.82 28.1554 108.612 25.5429 108.612 23.2995C108.612 19.3274 111.09 16.0156 115.937 16.0156C117.453 16.0156 118.896 16.4526 119.576 16.8994L118.859 21.0561C118.206 20.6093 117.207 20.2111 115.901 20.2111C113.976 20.2111 113.051 21.464 113.051 22.7848C113.051 24.261 113.74 25.0282 116.245 26.6501C119.304 28.6313 120.439 31.137 120.439 33.7495C120.439 38.2752 117.307 41.2567 112.769 41.2567C110.918 41.2567 109.094 40.742 108.34 40.2661L108.994 36.1094Z" fill="white"/>
<path d="M125.558 20.6961H121.464V16.248H134.18V20.6961H130.059V41.0327H125.558V20.6961Z" fill="white"/>
<path d="M139.071 35.3696L138.037 41.0316H133.671L138.69 16.2373H144.09L148.592 41.0316H144.227L143.228 35.3696H139.071ZM142.82 31.6209L142.066 26.4347C141.831 24.9294 141.513 22.4626 141.313 20.8116H141.213C140.968 22.4626 140.632 25.0459 140.387 26.4736L139.525 31.6209H142.82Z" fill="white"/>
<path d="M151.143 41.0424V16.248H155.263L158.839 25.9599C159.529 27.8731 160.663 31.0683 161.317 33.2049H161.389C161.253 30.5925 160.945 26.2901 160.945 21.7255V16.248H164.902V41.0424H160.781L157.242 31.6219C156.488 29.5241 155.417 26.3969 154.909 24.1535H154.836C154.936 26.6591 155.109 30.4759 155.109 35.4484V41.0424H151.143Z" fill="white"/>
<path d="M168.877 16.6175C170.248 16.2873 172.036 16.1416 173.996 16.1416C176.165 16.1416 178.262 16.433 179.877 17.9092C181.112 19.0163 181.629 20.6673 181.629 22.396C181.629 24.6006 180.567 26.7372 178.262 27.8055V27.9512C180.948 28.7573 182.382 31.1464 182.382 33.8754C182.382 35.9344 181.765 37.5174 180.667 38.7314C179.296 40.3532 176.955 41.237 173.07 41.237C171.355 41.237 169.912 41.1302 168.877 40.9748V16.6175ZM173.379 26.4362H174.341C175.956 26.4362 177.191 24.96 177.191 22.9399C177.191 21.1335 176.401 19.7447 174.541 19.7447C174.06 19.7447 173.651 19.7835 173.37 19.8904V26.4362H173.379ZM173.379 37.43C173.651 37.5077 173.96 37.5077 174.377 37.5077C176.201 37.5077 177.708 36.3325 177.708 33.788C177.708 31.3212 176.129 30.0393 174.341 30.0004H173.379V37.43Z" fill="white"/>
<path d="M189.852 16.248V32.36C189.852 36.002 190.877 37.1091 192.048 37.1091C193.355 37.1091 194.281 36.1185 194.281 32.36V16.248H198.782V31.5151C198.782 37.8763 196.55 41.3337 192.084 41.3337C187.238 41.3337 185.35 37.7695 185.35 31.5539V16.2578H189.852V16.248Z" fill="white"/>
<path d="M202.676 16.248H207.178V36.9537H213.123V41.0327H202.676V16.248Z" fill="white"/>
<path d="M221.2 16.6175C222.58 16.2873 224.359 16.1416 226.319 16.1416C228.479 16.1416 230.585 16.433 232.191 17.9092C233.426 19.0163 233.943 20.6673 233.943 22.396C233.943 24.6006 232.881 26.7372 230.576 27.8055V27.9512C233.262 28.7573 234.696 31.1464 234.696 33.8754C234.696 35.9344 234.079 37.5174 232.981 38.7314C231.611 40.3532 229.269 41.237 225.384 41.237C223.669 41.237 222.226 41.1302 221.191 40.9748V16.6175H221.2ZM225.711 26.4362H226.673C228.289 26.4362 229.523 24.96 229.523 22.9399C229.523 21.1335 228.733 19.7447 226.873 19.7447C226.392 19.7447 225.983 19.7835 225.702 19.8904V26.4362H225.711ZM225.711 37.43C225.983 37.5077 226.292 37.5077 226.709 37.5077C228.534 37.5077 230.04 36.3325 230.04 33.788C230.04 31.3212 228.461 30.0393 226.673 30.0004H225.711V37.43Z" fill="white"/>
<path d="M247.602 30.1554H242.311V36.8469H248.292V41.0424H237.809V16.248H247.884V20.4436H242.32V26.1444H247.612V30.1554H247.602Z" fill="white"/>
<path d="M254.309 41.0424V31.554L249.218 16.2578H254.028L255.607 22.182C256.025 23.7651 256.47 25.6006 256.814 27.4458H256.887C257.159 25.6394 257.54 23.8428 257.949 22.0752L259.319 16.2675H263.993L258.802 31.3889V41.0619H254.309V41.0424Z" fill="white"/>
<path d="M265.554 16.248H270.056V27.3973H270.12C270.501 26.3678 270.873 25.2606 271.254 24.2021L274.349 16.2578H279.305L274.113 27.0379L279.368 41.0521H274.458L271.091 30.7867L270.065 32.8067V41.0424H265.563V16.248H265.554Z" fill="white"/>
<path d="M291.131 30.1554H285.839V36.8469H291.82V41.0424H281.338V16.248H291.412V20.4436H285.848V26.1444H291.14V30.1554H291.131Z" fill="white"/>
<path d="M294.879 41.0424V16.248H299L302.576 25.9599C303.265 27.8731 304.4 31.0683 305.053 33.2049H305.117C304.981 30.5925 304.672 26.2901 304.672 21.7255V16.248H308.629V41.0424H304.509L300.969 31.6219C300.216 29.5241 299.145 26.3969 298.628 24.1535H298.564C298.664 26.6591 298.836 30.4759 298.836 35.4484V41.0424H294.879Z" fill="white"/>
<path d="M315.128 20.6961H311.035V16.248H323.75V20.6961H319.63V41.0327H315.128V20.6961Z" fill="white"/>
<path d="M105.345 55.873V71.985C105.345 75.6269 106.38 76.7341 107.542 76.7341C108.849 76.7341 109.775 75.7435 109.775 71.985V55.873H114.276V71.14C114.276 77.5013 112.044 80.9587 107.578 80.9587C102.732 80.9587 100.844 77.3945 100.844 71.1789V55.8827H105.345V55.873ZM102.359 52.0466C102.359 50.7257 103.321 49.6963 104.383 49.6963C105.482 49.6963 106.407 50.7257 106.407 52.0466C106.407 53.3674 105.482 54.3968 104.383 54.3968C103.285 54.3968 102.359 53.3674 102.359 52.0466ZM108.649 52.0466C108.649 50.7257 109.611 49.6963 110.709 49.6963C111.808 49.6963 112.733 50.7257 112.733 52.0466C112.733 53.3674 111.808 54.3968 110.709 54.3968C109.575 54.3968 108.649 53.3674 108.649 52.0466Z" fill="white"/>
<path d="M118.169 80.6566V55.8623H122.29L125.866 65.5742C126.556 67.4874 127.69 70.6826 128.344 72.8192H128.416C128.28 70.2067 127.972 65.9044 127.972 61.3398V55.8623H131.929V80.6566H127.808L124.269 71.2362C123.515 69.1384 122.444 66.0112 121.936 63.7677H121.863C121.963 66.2734 122.136 70.0901 122.136 75.0626V80.6566H118.169Z" fill="white"/>
<path d="M140.415 55.8723V80.6667H135.913V55.8723H140.415ZM136.05 52.007C136.05 50.7153 137.048 49.6567 138.182 49.6567C139.389 49.6567 140.352 50.725 140.352 52.007C140.352 53.2987 139.389 54.3573 138.182 54.3573C137.012 54.367 136.05 53.2987 136.05 52.007Z" fill="white"/>
<path d="M147.667 80.6576L142.475 55.8632H147.458L149.11 66.5657C149.527 69.217 150.008 72.2665 150.317 75.1704H150.389C150.698 72.2277 151.079 69.2462 151.487 66.4491L153.067 55.8535H158.013L152.722 80.6479H147.667V80.6576Z" fill="white"/>
<path d="M169.766 69.7794H164.475V76.4709H170.456V80.6664H159.973V55.8721H170.048V60.0676H164.475V65.7684H169.766V69.7794Z" fill="white"/>
<path d="M173.524 56.2405C174.931 55.9492 176.719 55.7646 178.443 55.7646C180.921 55.7646 183.117 56.1337 184.633 57.6002C186.04 58.9598 186.457 60.6206 186.457 62.7475C186.457 65.3988 185.25 67.7879 182.881 68.963V69.0407C184.46 69.7011 185.25 71.2842 185.704 73.9355C186.149 76.6937 186.766 79.7432 187.183 80.6658H182.473C182.201 79.9666 181.683 77.4706 181.338 74.7416C180.93 71.6532 180.204 70.7694 178.688 70.7694H178.035V80.6658H173.533V56.2405H173.524ZM178.026 67.0498H178.815C180.776 67.0498 181.91 65.36 181.91 63.1845C181.91 61.0867 181.12 59.5814 179.087 59.5037C178.706 59.5037 178.262 59.5426 178.026 59.6494V67.0498Z" fill="white"/>
<path d="M189.162 75.7335C190.088 76.287 191.676 76.6852 192.974 76.6852C195.107 76.6852 196.132 75.5101 196.132 73.8882C196.132 72.0818 195.107 71.2077 193.146 69.8384C189.988 67.7795 188.781 65.167 188.781 62.9235C188.781 58.9514 191.259 55.6396 196.105 55.6396C197.621 55.6396 199.064 56.0767 199.745 56.5234L199.028 60.6801C198.374 60.2334 197.376 59.8352 196.069 59.8352C194.145 59.8352 193.219 61.088 193.219 62.4088C193.219 63.885 193.909 64.6523 196.414 66.2741C199.472 68.2553 200.607 70.761 200.607 73.3735C200.607 77.8992 197.476 80.8807 192.938 80.8807C191.086 80.8807 189.262 80.366 188.509 79.8901L189.162 75.7335Z" fill="white"/>
<path d="M207.723 55.8723V80.6667H203.221V55.8723H207.723ZM203.357 52.007C203.357 50.7153 204.355 49.6567 205.49 49.6567C206.688 49.6567 207.65 50.725 207.65 52.007C207.65 53.2987 206.688 54.3573 205.49 54.3573C204.319 54.367 203.357 53.2987 203.357 52.007Z" fill="white"/>
<path d="M214.257 60.3201H210.164V55.8721H222.879V60.3201H218.759V80.6567H214.257V60.3201Z" fill="white"/>
<path d="M235.059 69.7794H229.768V76.4709H235.749V80.6664H225.266V55.8721H235.341V60.0676H229.777V65.7684H235.068V69.7794H235.059Z" fill="white"/>
<path d="M238.29 75.7335C239.216 76.287 240.804 76.6852 242.102 76.6852C244.235 76.6852 245.261 75.5101 245.261 73.8882C245.261 72.0818 244.235 71.2077 242.275 69.8384C239.116 67.7795 237.909 65.167 237.909 62.9235C237.909 58.9514 240.387 55.6396 245.233 55.6396C246.749 55.6396 248.192 56.0767 248.873 56.5234L248.156 60.6801C247.502 60.2334 246.504 59.8352 245.197 59.8352C243.273 59.8352 242.347 61.088 242.347 62.4088C242.347 63.885 243.037 64.6523 245.542 66.2741C248.601 68.2553 249.735 70.761 249.735 73.3735C249.735 77.8992 246.604 80.8807 242.066 80.8807C240.214 80.8807 238.39 80.366 237.637 79.8901L238.29 75.7335Z" fill="white"/>
<path d="M256.85 55.8723V80.6667H252.349V55.8723H256.85ZM252.485 52.007C252.485 50.7153 253.483 49.6567 254.618 49.6567C255.825 49.6567 256.787 50.725 256.787 52.007C256.787 53.2987 255.825 54.3573 254.618 54.3573C253.447 54.367 252.485 53.2987 252.485 52.007Z" fill="white"/>
</svg>
