<svg width="30" height="30" viewBox="0 0 30 30" fill="none" xmlns="http://www.w3.org/2000/svg">
<path fill-rule="evenodd" clip-rule="evenodd" d="M15 22.4999C19.1421 22.4999 22.5 19.142 22.5 14.9999C22.5 10.8577 19.1421 7.49986 15 7.49986C10.8579 7.49986 7.5 10.8577 7.5 14.9999C7.5 19.142 10.8579 22.4999 15 22.4999ZM15 19.9999C17.7614 19.9999 20 17.7612 20 14.9999C20 12.2384 17.7614 9.99986 15 9.99986C12.2386 9.99986 10 12.2384 10 14.9999C10 17.7612 12.2386 19.9999 15 19.9999Z" fill="white"/>
<path d="M22.5 6.24988C21.8096 6.24988 21.25 6.80953 21.25 7.49988C21.25 8.19023 21.8096 8.74988 22.5 8.74988C23.1904 8.74988 23.75 8.19023 23.75 7.49988C23.75 6.80953 23.1904 6.24988 22.5 6.24988Z" fill="white"/>
<path fill-rule="evenodd" clip-rule="evenodd" d="M2.06746 5.34505C1.25001 6.94939 1.25001 9.04959 1.25001 13.25V16.75C1.25001 20.9504 1.25001 23.0506 2.06746 24.6549C2.78651 26.0661 3.93386 27.2135 5.34508 27.9325C6.94942 28.75 9.04962 28.75 13.25 28.75H16.75C20.9504 28.75 23.0506 28.75 24.6549 27.9325C26.0661 27.2135 27.2135 26.0661 27.9325 24.6549C28.75 23.0506 28.75 20.9504 28.75 16.75V13.25C28.75 9.04959 28.75 6.94939 27.9325 5.34505C27.2135 3.93383 26.0661 2.78648 24.6549 2.06743C23.0506 1.24998 20.9504 1.24998 16.75 1.24998H13.25C9.04962 1.24998 6.94942 1.24998 5.34508 2.06743C3.93386 2.78648 2.78651 3.93383 2.06746 5.34505ZM16.75 3.74998H13.25C11.1086 3.74998 9.65282 3.75193 8.52761 3.84385C7.43156 3.9334 6.87106 4.09571 6.48006 4.29494C5.53925 4.77431 4.77435 5.53921 4.29497 6.48003C4.09575 6.87103 3.93343 7.43153 3.84388 8.52758C3.75196 9.65279 3.75001 11.1085 3.75001 13.25V16.75C3.75001 18.8915 3.75196 20.3471 3.84388 21.4724C3.93343 22.5685 4.09575 23.129 4.29497 23.52C4.77435 24.4607 5.53925 25.2256 6.48006 25.705C6.87106 25.9042 7.43156 26.0666 8.52761 26.1561C9.65282 26.248 11.1086 26.25 13.25 26.25H16.75C18.8915 26.25 20.3471 26.248 21.4724 26.1561C22.5685 26.0666 23.129 25.9042 23.52 25.705C24.4608 25.2256 25.2256 24.4607 25.705 23.52C25.9043 23.129 26.0666 22.5685 26.1561 21.4724C26.248 20.3471 26.25 18.8915 26.25 16.75V13.25C26.25 11.1085 26.248 9.65279 26.1561 8.52758C26.0666 7.43153 25.9043 6.87103 25.705 6.48003C25.2256 5.53921 24.4608 4.77431 23.52 4.29494C23.129 4.09571 22.5685 3.9334 21.4724 3.84385C20.3471 3.75193 18.8915 3.74998 16.75 3.74998Z" fill="white"/>
</svg>
