<svg width="223" height="71" viewBox="0 0 223 71" fill="none" xmlns="http://www.w3.org/2000/svg">
<path d="M4.64037 6.21819V31.023H0.136776V6.21819H4.64037ZM0.272968 2.35125C0.272968 1.05903 1.27175 0 2.40673 0C3.61434 0 4.5768 1.06875 4.5768 2.35125C4.5768 3.64347 3.61434 4.70251 2.40673 4.70251C1.23543 4.71222 0.272968 3.64347 0.272968 2.35125Z" fill="white"/>
<path d="M8.15299 26.0882C9.07913 26.642 10.659 27.0403 11.9665 27.0403C14.1003 27.0403 15.1263 25.8647 15.1263 24.2421C15.1263 22.435 14.1003 21.5605 12.139 20.1906C8.97926 18.1308 7.77164 15.5172 7.77164 13.2729C7.77164 9.29905 10.2504 5.98591 15.099 5.98591C16.6154 5.98591 18.0591 6.42312 18.7401 6.87005L18.0227 11.0285C17.369 10.5815 16.3702 10.1832 15.0627 10.1832C13.1378 10.1832 12.2117 11.4366 12.2117 12.7579C12.2117 14.2347 12.9017 15.0023 15.4078 16.6249C18.4677 18.6069 19.6026 21.1136 19.6026 23.7272C19.6026 28.2548 16.4701 31.2376 11.9302 31.2376C10.0779 31.2376 8.25287 30.7227 7.49925 30.2466L8.15299 26.0882Z" fill="white"/>
<path d="M24.7248 10.6683H20.6298V6.21843H33.3506V10.6683H29.2283V31.0135H24.7248V10.6683Z" fill="white"/>
<path d="M38.2444 25.3481L37.2093 31.0125H32.8419L37.8631 6.20769H43.2655L47.7691 31.0125H43.4017L42.403 25.3481H38.2444ZM41.9944 21.5977L41.2408 16.4094C41.0047 14.9034 40.6869 12.4356 40.4871 10.7839H40.3873C40.1421 12.4356 39.8061 15.02 39.561 16.4483L38.6984 21.5977H41.9944Z" fill="white"/>
<path d="M50.318 31.0232V6.21843H54.4403L58.0177 15.9344C58.7078 17.8484 59.8427 21.045 60.4965 23.1825H60.5691C60.4329 20.5689 60.1242 16.2647 60.1242 11.6982V6.21843H64.083V31.0232H59.9608L56.4197 21.5988C55.666 19.5001 54.5946 16.3716 54.0861 14.1272H54.0135C54.1134 16.6339 54.2859 20.4523 54.2859 25.4268V31.0232H50.318Z" fill="white"/>
<path d="M68.0638 6.58803C69.4348 6.25769 71.2235 6.11194 73.1848 6.11194C75.3549 6.11194 77.4523 6.40343 79.0685 7.88025C80.3033 8.98787 80.8209 10.6396 80.8209 12.369C80.8209 14.5745 79.7586 16.712 77.4523 17.7808V17.9265C80.1399 18.7329 81.5745 21.1231 81.5745 23.8532C81.5745 25.913 80.9571 27.4967 79.8584 28.7112C78.4874 30.3338 76.1448 31.2179 72.2586 31.2179C70.5426 31.2179 69.0989 31.111 68.0638 30.9556V6.58803ZM72.5674 16.4108H73.5298C75.146 16.4108 76.3809 14.934 76.3809 12.9131C76.3809 11.1059 75.5909 9.71656 73.7296 9.71656C73.2483 9.71656 72.8397 9.75542 72.5583 9.86229V16.4108H72.5674ZM72.5674 27.4093C72.8398 27.487 73.1485 27.487 73.5661 27.487C75.3912 27.487 76.8984 26.3114 76.8984 23.7658C76.8984 21.2979 75.3185 20.0154 73.5298 19.9766H72.5674V27.4093Z" fill="white"/>
<path d="M89.0469 6.21843V22.3372C89.0469 25.9806 90.0729 27.0883 91.2442 27.0883C92.5517 27.0883 93.4779 26.0972 93.4779 22.3372V6.21843H97.9815V21.4919C97.9815 27.8558 95.7478 31.3147 91.2806 31.3147C86.432 31.3147 84.5434 27.7489 84.5434 21.5308V6.22816H89.0469V6.21843Z" fill="white"/>
<path d="M101.875 6.21843H106.378V26.9328H112.326V31.0135H101.875V6.21843Z" fill="white"/>
<path d="M120.407 6.58803C121.787 6.25769 123.567 6.11194 125.528 6.11194C127.689 6.11194 129.796 6.40343 131.403 7.88025C132.638 8.98787 133.155 10.6396 133.155 12.369C133.155 14.5745 132.093 16.712 129.787 17.7808V17.9265C132.474 18.7329 133.909 21.1231 133.909 23.8532C133.909 25.913 133.292 27.4967 132.193 28.7112C130.822 30.3338 128.479 31.2179 124.593 31.2179C122.877 31.2179 121.433 31.111 120.398 30.9556V6.58803H120.407ZM124.92 16.4108H125.882C127.499 16.4108 128.734 14.934 128.734 12.9131C128.734 11.1059 127.944 9.71656 126.082 9.71656C125.601 9.71656 125.192 9.75542 124.911 9.86229V16.4108H124.92ZM124.92 27.4093C125.192 27.487 125.501 27.487 125.919 27.487C127.744 27.487 129.251 26.3114 129.251 23.7658C129.251 21.2979 127.671 20.0154 125.882 19.9766H124.92V27.4093Z" fill="white"/>
<path d="M146.82 20.1317H141.526V26.8259H147.51V31.0232H137.022V6.21843H147.101V10.4157H141.535V16.119H146.829V20.1317H146.82Z" fill="white"/>
<path d="M153.531 31.0233V21.5308L148.437 6.2282H153.25L154.83 12.1549C155.247 13.7386 155.692 15.5749 156.037 17.4209H156.11C156.382 15.6138 156.764 13.8163 157.172 12.048L158.543 6.23791H163.219L158.026 21.3656V31.0427H153.531V31.0233Z" fill="white"/>
<path d="M164.78 6.21843H169.284V17.3723H169.347C169.729 16.3424 170.101 15.2348 170.482 14.1758L173.579 6.22816H178.536L173.342 17.0128L178.6 31.0329H173.688L170.319 20.7632L169.293 22.7841V31.0232H164.789V6.21843H164.78Z" fill="white"/>
<path d="M190.365 20.1317H185.072V26.8259H191.055V31.0232H180.568V6.21843H190.647V10.4157H185.081V16.119H190.374V20.1317H190.365Z" fill="white"/>
<path d="M194.117 31.0232V6.21843H198.239L201.816 15.9344C202.506 17.8484 203.641 21.045 204.295 23.1825H204.359C204.223 20.5689 203.914 16.2647 203.914 11.6982V6.21843H207.873V31.0232H203.75L200.209 21.5988C199.456 19.5001 198.384 16.3716 197.867 14.1272H197.803C197.903 16.6339 198.076 20.4523 198.076 25.4268V31.0232H194.117Z" fill="white"/>
<path d="M214.375 10.6683H210.28V6.21843H223.001V10.6683H218.878V31.0135H214.375V10.6683Z" fill="white"/>
<path d="M4.50358 45.8601V61.9788C4.50358 65.6223 5.53867 66.7299 6.70089 66.7299C8.00838 66.7299 8.93453 65.7389 8.93453 61.9788V45.8601H13.4381V61.1335C13.4381 67.4975 11.2045 70.9563 6.73722 70.9563C1.8886 70.9563 0 67.3906 0 61.1724V45.8698H4.50358V45.8601ZM1.51633 42.032C1.51633 40.7106 2.47878 39.6807 3.54112 39.6807C4.63978 39.6807 5.56591 40.7106 5.56591 42.032C5.56591 43.3534 4.63978 44.3833 3.54112 44.3833C2.44246 44.3833 1.51633 43.3534 1.51633 42.032ZM7.80863 42.032C7.80863 40.7106 8.77109 39.6807 9.86975 39.6807C10.9684 39.6807 11.8945 40.7106 11.8945 42.032C11.8945 43.3534 10.9684 44.3833 9.86975 44.3833C8.73477 44.3833 7.80863 43.3534 7.80863 42.032Z" fill="white"/>
<path d="M17.3315 70.6541V45.8494H21.4537L25.0312 55.5653C25.7212 57.4793 26.8562 60.6759 27.51 62.8134H27.5826C27.4464 60.1998 27.1377 55.8956 27.1377 51.3291V45.8494H31.0965V70.6541H26.9743L23.4331 61.2297C22.6795 59.131 21.6081 56.0025 21.0996 53.7581H21.027C21.1269 56.2648 21.2994 60.0832 21.2994 65.0577V70.6541H17.3315Z" fill="white"/>
<path d="M39.5886 45.8589V70.6636H35.0851V45.8589H39.5886ZM35.2213 41.9919C35.2213 40.6997 36.22 39.6407 37.355 39.6407C38.5626 39.6407 39.5251 40.7094 39.5251 41.9919C39.5251 43.2842 38.5626 44.3432 37.355 44.3432C36.1837 44.3529 35.2213 43.2842 35.2213 41.9919Z" fill="white"/>
<path d="M46.844 70.6551L41.6503 45.8503H46.6351L48.2877 56.5572C48.7053 59.2097 49.1866 62.2605 49.4953 65.1655H49.5679C49.8766 62.2216 50.258 59.2388 50.6666 56.4406L52.2465 45.8406H57.195L51.9014 70.6453H46.844V70.6551Z" fill="white"/>
<path d="M68.9509 59.7723H63.6574V66.4666H69.641V70.6639H59.1538V45.8591H69.2324V50.0564H63.6574V55.7597H68.9509V59.7723Z" fill="white"/>
<path d="M72.7103 46.2277C74.1176 45.9363 75.9064 45.7517 77.6315 45.7517C80.1103 45.7517 82.3076 46.1209 83.8239 47.588C85.2313 48.9482 85.649 50.6096 85.649 52.7374C85.649 55.3899 84.4414 57.78 82.0715 58.9556V59.0333C83.6514 59.694 84.4414 61.2777 84.8954 63.9302C85.3403 66.6895 85.9577 69.7403 86.3754 70.6633H81.6629C81.3906 69.9638 80.873 67.4668 80.528 64.7366C80.1194 61.6469 79.393 60.7628 77.8767 60.7628H77.2229V70.6633H72.7193V46.2277H72.7103ZM77.2138 57.0416H78.0038C79.965 57.0416 81.1 55.351 81.1 53.1746C81.1 51.076 80.3101 49.57 78.2762 49.4923C77.8948 49.4923 77.4499 49.5312 77.2138 49.638V57.0416Z" fill="white"/>
<path d="M88.3547 65.7289C89.2808 66.2827 90.8698 66.681 92.1682 66.681C94.302 66.681 95.328 65.5054 95.328 63.8828C95.328 62.0757 94.302 61.2013 92.3407 59.8313C89.1809 57.7715 87.9733 55.1579 87.9733 52.9136C87.9733 48.9397 90.4521 45.6266 95.3007 45.6266C96.8171 45.6266 98.2608 46.0638 98.9417 46.5108L98.2244 50.6692C97.5707 50.2222 96.5719 49.8239 95.2644 49.8239C93.3395 49.8239 92.4134 51.0772 92.4134 52.3986C92.4134 53.8754 93.1034 54.643 95.6094 56.2656C98.6693 58.2476 99.8043 60.7543 99.8043 63.3679C99.8043 67.8955 96.6718 70.8783 92.1319 70.8783C90.2796 70.8783 88.4546 70.3634 87.7009 69.8873L88.3547 65.7289Z" fill="white"/>
<path d="M106.926 45.8589V70.6636H102.422V45.8589H106.926ZM102.558 41.9919C102.558 40.6997 103.557 39.6407 104.692 39.6407C105.89 39.6407 106.853 40.7094 106.853 41.9919C106.853 43.2842 105.89 44.3432 104.692 44.3432C103.521 44.3529 102.558 43.2842 102.558 41.9919Z" fill="white"/>
<path d="M113.461 50.309H109.366V45.8591H122.087V50.309H117.965V70.6542H113.461V50.309Z" fill="white"/>
<path d="M134.271 59.7723H128.978V66.4666H134.961V70.6639H124.474V45.8591H134.553V50.0564H128.987V55.7597H134.28V59.7723H134.271Z" fill="white"/>
<path d="M137.504 65.7289C138.43 66.2827 140.019 66.681 141.318 66.681C143.452 66.681 144.478 65.5054 144.478 63.8828C144.478 62.0757 143.452 61.2013 141.49 59.8313C138.33 57.7715 137.123 55.1579 137.123 52.9136C137.123 48.9397 139.602 45.6266 144.45 45.6266C145.967 45.6266 147.41 46.0638 148.091 46.5108L147.374 50.6692C146.72 50.2222 145.721 49.8239 144.414 49.8239C142.489 49.8239 141.563 51.0772 141.563 52.3986C141.563 53.8754 142.253 54.643 144.759 56.2656C147.819 58.2476 148.954 60.7543 148.954 63.3679C148.954 67.8955 145.821 70.8783 141.281 70.8783C139.429 70.8783 137.604 70.3634 136.851 69.8873L137.504 65.7289Z" fill="white"/>
<path d="M156.071 45.8589V70.6636H151.568V45.8589H156.071ZM151.704 41.9919C151.704 40.6997 152.703 39.6407 153.838 39.6407C155.045 39.6407 156.008 40.7094 156.008 41.9919C156.008 43.2842 155.045 44.3432 153.838 44.3432C152.666 44.3529 151.704 43.2842 151.704 41.9919Z" fill="white"/>
</svg>
