<svg width="164" height="32" viewBox="0 0 164 32" fill="none" xmlns="http://www.w3.org/2000/svg">
<path fill-rule="evenodd" clip-rule="evenodd" d="M54.064 28.7999C66.1392 28.7999 72.744 18.9496 72.744 10.4085C72.744 10.1281 72.744 9.84977 72.7248 9.57252C74.0096 8.65886 75.1184 7.52445 76 6.22643C74.8032 6.74942 73.5312 7.0924 72.2304 7.24362C73.6 6.43551 74.6256 5.16592 75.1168 3.66784C73.8272 4.42081 72.4176 4.95223 70.9472 5.23737C68.4608 2.63502 64.3024 2.50893 61.6576 4.9569C59.9536 6.53531 59.2288 8.88871 59.7584 11.1335C54.48 10.872 49.5616 8.41774 46.2272 4.38034C44.4848 7.33395 45.376 11.1111 48.2608 13.0077C47.216 12.9777 46.1936 12.7008 45.28 12.1999V12.2819C45.2816 15.3584 47.4848 18.0074 50.5472 18.6171C49.5808 18.877 48.5664 18.9147 47.584 18.7272C48.4432 21.3611 50.9088 23.1651 53.7168 23.2171C51.392 25.016 48.52 25.9928 45.5632 25.9897C45.0416 25.9881 44.52 25.9582 44 25.8967C47.0032 27.7934 50.496 28.7999 54.064 28.7952" fill="white"/>
<g clip-path="url(#clip0_515_1315)">
<path fill-rule="evenodd" clip-rule="evenodd" d="M17.3098 29.2857V16.1071H21.3108L21.9643 10.25H17.3098V7.39722C17.3098 5.889 17.3483 4.39286 19.4558 4.39286H21.5904V0.2052C21.5904 0.142236 19.7569 0 17.9019 0C14.0279 0 11.6021 2.42661 11.6021 6.88243V10.25H7.32143V16.1071H11.6021V29.2857H17.3098Z" fill="white"/>
</g>
<path fill-rule="evenodd" clip-rule="evenodd" d="M104.452 21.9642C108.496 21.9642 111.774 18.6862 111.774 14.6427C111.774 10.5992 108.496 7.32129 104.452 7.32129C100.409 7.32129 97.131 10.5992 97.131 14.6427C97.131 18.6862 100.409 21.9642 104.452 21.9642ZM104.452 19.5237C107.148 19.5237 109.333 17.3383 109.333 14.6427C109.333 11.947 107.148 9.76177 104.452 9.76177C101.757 9.76177 99.5715 11.947 99.5715 14.6427C99.5715 17.3383 101.757 19.5237 104.452 19.5237Z" fill="white"/>
<path d="M111.774 6.10107C111.1 6.10107 110.554 6.6474 110.554 7.32131C110.554 7.99523 111.1 8.54155 111.774 8.54155C112.448 8.54155 112.994 7.99523 112.994 7.32131C112.994 6.6474 112.448 6.10107 111.774 6.10107Z" fill="white"/>
<path fill-rule="evenodd" clip-rule="evenodd" d="M91.8278 5.21779C91.0298 6.78393 91.0298 8.83413 91.0298 12.9345V16.3512C91.0298 20.4515 91.0298 22.5018 91.8278 24.0678C92.5298 25.4455 93.6498 26.5655 95.0274 27.2674C96.5936 28.0655 98.6438 28.0655 102.744 28.0655H106.161C110.261 28.0655 112.311 28.0655 113.877 27.2674C115.255 26.5655 116.375 25.4455 117.077 24.0678C117.875 22.5018 117.875 20.4515 117.875 16.3512V12.9345C117.875 8.83413 117.875 6.78393 117.077 5.21779C116.375 3.84016 115.255 2.72013 113.877 2.0182C112.311 1.22021 110.261 1.22021 106.161 1.22021H102.744C98.6438 1.22021 96.5936 1.22021 95.0274 2.0182C93.6498 2.72013 92.5298 3.84016 91.8278 5.21779ZM106.161 3.66069H102.744C100.654 3.66069 99.2326 3.6626 98.1342 3.75233C97.0642 3.83975 96.5171 3.9982 96.1354 4.19268C95.217 4.66064 94.4703 5.40733 94.0023 6.32574C93.8078 6.70743 93.6494 7.25459 93.562 8.32454C93.4722 9.42296 93.4703 10.844 93.4703 12.9345V16.3512C93.4703 18.4417 93.4722 19.8627 93.562 20.9611C93.6494 22.0311 93.8078 22.5783 94.0023 22.96C94.4703 23.8783 95.217 24.625 96.1354 25.093C96.5171 25.2875 97.0642 25.446 98.1342 25.5333C99.2326 25.623 100.654 25.625 102.744 25.625H106.161C108.251 25.625 109.672 25.623 110.771 25.5333C111.841 25.446 112.388 25.2875 112.77 25.093C113.688 24.625 114.435 23.8783 114.903 22.96C115.097 22.5783 115.256 22.0311 115.343 20.9611C115.433 19.8627 115.435 18.4417 115.435 16.3512V12.9345C115.435 10.844 115.433 9.42296 115.343 8.32454C115.256 7.25459 115.097 6.70743 114.903 6.32574C114.435 5.40733 113.688 4.66064 112.77 4.19268C112.388 3.9982 111.841 3.83975 110.771 3.75233C109.672 3.6626 108.251 3.66069 106.161 3.66069Z" fill="white"/>
<g clip-path="url(#clip1_515_1315)">
<path fill-rule="evenodd" clip-rule="evenodd" d="M146.302 8.70228C145.924 8.48647 145.46 8.48802 145.084 8.70634C144.708 8.92467 144.476 9.32676 144.476 9.76174V19.5236C144.476 19.9587 144.708 20.3607 145.084 20.579C145.46 20.7973 145.924 20.7989 146.302 20.5831L154.843 15.7021C155.224 15.4849 155.458 15.0806 155.458 14.6427C155.458 14.2048 155.224 13.8005 154.843 13.5833L146.302 8.70228ZM151.779 14.6427L146.917 17.4209V11.8644L151.779 14.6427Z" fill="white"/>
<path fill-rule="evenodd" clip-rule="evenodd" d="M134.714 14.6428C134.714 10.0672 134.714 7.77944 135.879 6.17564C136.256 5.65769 136.711 5.20218 137.229 4.82586C138.833 3.66064 141.121 3.66064 145.696 3.66064H153.018C157.593 3.66064 159.881 3.66064 161.485 4.82586C162.003 5.20218 162.458 5.65769 162.835 6.17564C164 7.77944 164 10.0672 164 14.6428C164 19.2183 164 21.5061 162.835 23.1099C162.458 23.6279 162.003 24.0834 161.485 24.4597C159.881 25.6249 157.593 25.6249 153.018 25.6249H145.696C141.121 25.6249 138.833 25.6249 137.229 24.4597C136.711 24.0834 136.256 23.6279 135.879 23.1099C134.714 21.5061 134.714 19.2183 134.714 14.6428ZM145.696 6.10112H153.018C155.36 6.10112 156.921 6.10448 158.103 6.23258C159.24 6.35574 159.734 6.57028 160.051 6.80026C160.361 7.02605 160.635 7.29935 160.86 7.61012C161.09 7.92666 161.305 8.42095 161.428 9.55768C161.556 10.7401 161.56 12.3007 161.56 14.6428C161.56 16.9849 161.556 18.5455 161.428 19.7279C161.305 20.8647 161.09 21.359 160.86 21.6755C160.635 21.9862 160.361 22.2595 160.051 22.4854C159.734 22.7153 159.24 22.9298 158.103 23.053C156.921 23.1812 155.36 23.1845 153.018 23.1845H145.696C143.354 23.1845 141.794 23.1812 140.611 23.053C139.475 22.9298 138.98 22.7153 138.664 22.4854C138.353 22.2595 138.08 21.9862 137.854 21.6755C137.624 21.359 137.409 20.8647 137.286 19.7279C137.158 18.5455 137.155 16.9849 137.155 14.6428C137.155 12.3007 137.158 10.7401 137.286 9.55768C137.409 8.42095 137.624 7.92666 137.854 7.61012C138.08 7.29935 138.353 7.02605 138.664 6.80026C138.98 6.57028 139.475 6.35574 140.611 6.23258C141.794 6.10448 143.354 6.10112 145.696 6.10112Z" fill="white"/>
</g>
<defs>
<clipPath id="clip0_515_1315">
<rect width="29.2857" height="29.2857" fill="white"/>
</clipPath>
<clipPath id="clip1_515_1315">
<rect width="29.2857" height="29.2857" fill="white" transform="translate(134.714)"/>
</clipPath>
</defs>
</svg>
