<svg width="164" height="32" viewBox="0 0 164 32" fill="none" xmlns="http://www.w3.org/2000/svg">
<path fill-rule="evenodd" clip-rule="evenodd" d="M54.064 28.7999C66.1392 28.7999 72.744 18.9496 72.744 10.4085C72.744 10.1281 72.744 9.84977 72.7248 9.57252C74.0096 8.65886 75.1184 7.52445 76 6.22643C74.8032 6.74942 73.5312 7.0924 72.2304 7.24362C73.6 6.43551 74.6256 5.16592 75.1168 3.66784C73.8272 4.42081 72.4176 4.95223 70.9472 5.23737C68.4608 2.63502 64.3024 2.50893 61.6576 4.9569C59.9536 6.53531 59.2288 8.88871 59.7584 11.1335C54.48 10.872 49.5616 8.41774 46.2272 4.38034C44.4848 7.33395 45.376 11.1111 48.2608 13.0077C47.216 12.9777 46.1936 12.7008 45.28 12.1999V12.2819C45.2816 15.3584 47.4848 18.0074 50.5472 18.6171C49.5808 18.877 48.5664 18.9147 47.584 18.7272C48.4432 21.3611 50.9088 23.1651 53.7168 23.2171C51.392 25.016 48.52 25.9928 45.5632 25.9897C45.0416 25.9881 44.52 25.9582 44 25.8967C47.0032 27.7934 50.496 28.7999 54.064 28.7952" fill="white"/>
<g clip-path="url(#clip0_442_4417)">
<path fill-rule="evenodd" clip-rule="evenodd" d="M17.3086 29.2857V16.1071H21.3096L21.9632 10.25H17.3086V7.39722C17.3086 5.889 17.3472 4.39286 19.4547 4.39286H21.5893V0.2052C21.5893 0.142236 19.7557 0 17.9008 0C14.0267 0 11.601 2.42661 11.601 6.88243V10.25H7.32031V16.1071H11.601V29.2857H17.3086Z" fill="white"/>
</g>
<path fill-rule="evenodd" clip-rule="evenodd" d="M104.45 21.9642C108.494 21.9642 111.772 18.6862 111.772 14.6427C111.772 10.5992 108.494 7.32129 104.45 7.32129C100.407 7.32129 97.1289 10.5992 97.1289 14.6427C97.1289 18.6862 100.407 21.9642 104.45 21.9642ZM104.45 19.5237C107.146 19.5237 109.331 17.3383 109.331 14.6427C109.331 11.947 107.146 9.76177 104.45 9.76177C101.755 9.76177 99.5694 11.947 99.5694 14.6427C99.5694 17.3383 101.755 19.5237 104.45 19.5237Z" fill="white"/>
<path d="M111.771 6.10156C111.097 6.10156 110.551 6.64789 110.551 7.3218C110.551 7.99571 111.097 8.54204 111.771 8.54204C112.445 8.54204 112.991 7.99571 112.991 7.3218C112.991 6.64789 112.445 6.10156 111.771 6.10156Z" fill="white"/>
<path fill-rule="evenodd" clip-rule="evenodd" d="M91.8253 5.21828C91.0273 6.78442 91.0273 8.83461 91.0273 12.935V16.3517C91.0273 20.452 91.0273 22.5023 91.8253 24.0683C92.5273 25.446 93.6473 26.566 95.0249 27.2679C96.5911 28.066 98.6413 28.066 102.742 28.066H106.158C110.259 28.066 112.309 28.066 113.875 27.2679C115.253 26.566 116.373 25.446 117.075 24.0683C117.873 22.5023 117.873 20.452 117.873 16.3517V12.935C117.873 8.83461 117.873 6.78442 117.075 5.21828C116.373 3.84065 115.253 2.72062 113.875 2.01869C112.309 1.2207 110.259 1.2207 106.158 1.2207H102.742C98.6413 1.2207 96.5911 1.2207 95.0249 2.01869C93.6473 2.72062 92.5273 3.84065 91.8253 5.21828ZM106.158 3.66118H102.742C100.651 3.66118 99.2301 3.66308 98.1317 3.75282C97.0617 3.84024 96.5146 3.99869 96.1329 4.19317C95.2145 4.66113 94.4678 5.40782 93.9998 6.32623C93.8053 6.70792 93.6469 7.25508 93.5595 8.32503C93.4697 9.42345 93.4678 10.8445 93.4678 12.935V16.3517C93.4678 18.4422 93.4697 19.8631 93.5595 20.9616C93.6469 22.0316 93.8053 22.5788 93.9998 22.9605C94.4678 23.8788 95.2145 24.6255 96.1329 25.0934C96.5146 25.288 97.0617 25.4465 98.1317 25.5338C99.2301 25.6235 100.651 25.6255 102.742 25.6255H106.158C108.249 25.6255 109.67 25.6235 110.768 25.5338C111.838 25.4465 112.385 25.288 112.767 25.0934C113.685 24.6255 114.432 23.8788 114.9 22.9605C115.095 22.5788 115.253 22.0316 115.34 20.9616C115.43 19.8631 115.432 18.4422 115.432 16.3517V12.935C115.432 10.8445 115.43 9.42345 115.34 8.32503C115.253 7.25508 115.095 6.70792 114.9 6.32623C114.432 5.40782 113.685 4.66113 112.767 4.19317C112.385 3.99869 111.838 3.84024 110.768 3.75282C109.67 3.66308 108.249 3.66118 106.158 3.66118Z" fill="white"/>
<g clip-path="url(#clip1_442_4417)">
<path fill-rule="evenodd" clip-rule="evenodd" d="M146.302 8.70277C145.925 8.48696 145.461 8.48851 145.084 8.70683C144.708 8.92516 144.477 9.32725 144.477 9.76223V19.5241C144.477 19.9592 144.708 20.3612 145.084 20.5795C145.461 20.7978 145.925 20.7994 146.302 20.5835L154.844 15.7026C155.224 15.4854 155.459 15.0811 155.459 14.6432C155.459 14.2052 155.224 13.801 154.844 13.5838L146.302 8.70277ZM151.779 14.6432L146.917 17.4214V11.8649L151.779 14.6432Z" fill="white"/>
<path fill-rule="evenodd" clip-rule="evenodd" d="M134.715 14.6433C134.715 10.0677 134.715 7.77993 135.88 6.17613C136.256 5.65818 136.712 5.20267 137.23 4.82635C138.834 3.66113 141.121 3.66113 145.697 3.66113H153.018C157.594 3.66113 159.882 3.66113 161.486 4.82635C162.004 5.20267 162.459 5.65818 162.835 6.17613C164.001 7.77993 164.001 10.0677 164.001 14.6433C164.001 19.2188 164.001 21.5066 162.835 23.1104C162.459 23.6284 162.004 24.0839 161.486 24.4602C159.882 25.6254 157.594 25.6254 153.018 25.6254H145.697C141.121 25.6254 138.834 25.6254 137.23 24.4602C136.712 24.0839 136.256 23.6284 135.88 23.1104C134.715 21.5066 134.715 19.2188 134.715 14.6433ZM145.697 6.10161H153.018C155.361 6.10161 156.921 6.10497 158.104 6.23307C159.24 6.35622 159.735 6.57077 160.051 6.80075C160.362 7.02654 160.635 7.29984 160.861 7.61061C161.091 7.92715 161.305 8.42144 161.429 9.55817C161.557 10.7406 161.56 12.3012 161.56 14.6433C161.56 16.9854 161.557 18.546 161.429 19.7284C161.305 20.8652 161.091 21.3595 160.861 21.676C160.635 21.9867 160.362 22.26 160.051 22.4859C159.735 22.7158 159.24 22.9303 158.104 23.0535C156.921 23.1817 155.361 23.1849 153.018 23.1849H145.697C143.355 23.1849 141.794 23.1817 140.612 23.0535C139.475 22.9303 138.981 22.7158 138.664 22.4859C138.354 22.26 138.08 21.9867 137.854 21.676C137.624 21.3595 137.41 20.8652 137.287 19.7284C137.159 18.546 137.155 16.9854 137.155 14.6433C137.155 12.3012 137.159 10.7406 137.287 9.55817C137.41 8.42144 137.624 7.92715 137.854 7.61061C138.08 7.29984 138.354 7.02654 138.664 6.80075C138.981 6.57077 139.475 6.35622 140.612 6.23307C141.794 6.10497 143.355 6.10161 145.697 6.10161Z" fill="white"/>
</g>
<defs>
<clipPath id="clip0_442_4417">
<rect width="29.2857" height="29.2857" fill="white"/>
</clipPath>
<clipPath id="clip1_442_4417">
<rect width="29.2857" height="29.2857" fill="white" transform="translate(134.715)"/>
</clipPath>
</defs>
</svg>
