<svg width="30" height="30" viewBox="0 0 30 30" fill="none" xmlns="http://www.w3.org/2000/svg">
<g clip-path="url(#clip0_515_1332)">
<path fill-rule="evenodd" clip-rule="evenodd" d="M11.8702 8.91453C11.4833 8.69345 11.008 8.69504 10.6226 8.91869C10.2372 9.14234 9.99999 9.55424 9.99999 9.99983V19.9998C9.99999 20.4455 10.2372 20.8573 10.6226 21.081C11.008 21.3046 11.4833 21.3062 11.8702 21.0851L20.6201 16.0851C21.0096 15.8626 21.25 15.4485 21.25 14.9998C21.25 14.5512 21.0096 14.1371 20.6201 13.9146L11.8702 8.91453ZM17.4805 14.9998L12.5 17.8458V12.1538L17.4805 14.9998Z" fill="white"/>
<path fill-rule="evenodd" clip-rule="evenodd" d="M0 14.9999C0 10.3128 0 7.96918 1.19364 6.32627C1.57914 5.79568 2.04575 5.32907 2.57634 4.94357C4.21925 3.74993 6.56284 3.74993 11.25 3.74993H18.75C23.4371 3.74993 25.7808 3.74993 27.4236 4.94357C27.9543 5.32907 28.4209 5.79568 28.8064 6.32627C30 7.96918 30 10.3128 30 14.9999C30 19.6871 30 22.0307 28.8064 23.6736C28.4209 24.2042 27.9543 24.6708 27.4236 25.0563C25.7808 26.2499 23.4371 26.2499 18.75 26.2499H11.25C6.56284 26.2499 4.21925 26.2499 2.57634 25.0563C2.04575 24.6708 1.57914 24.2042 1.19364 23.6736C0 22.0307 0 19.6871 0 14.9999ZM11.25 6.24993H18.75C21.1493 6.24993 22.7479 6.25337 23.9591 6.38459C25.1236 6.51075 25.63 6.73053 25.9543 6.96612C26.2725 7.19742 26.5525 7.47738 26.7839 7.79573C27.0194 8.11999 27.2391 8.62634 27.3654 9.79079C27.4966 11.002 27.5 12.6007 27.5 14.9999C27.5 17.3992 27.4966 18.9978 27.3654 20.2091C27.2391 21.3736 27.0194 21.8799 26.7839 22.2042C26.5525 22.5224 26.2725 22.8024 25.9543 23.0338C25.63 23.2693 25.1236 23.4891 23.9591 23.6153C22.7479 23.7466 21.1493 23.7499 18.75 23.7499H11.25C8.85073 23.7499 7.25209 23.7466 6.04086 23.6153C4.87641 23.4891 4.37006 23.2693 4.0458 23.0338C3.72745 22.8024 3.44749 22.5224 3.21619 22.2042C2.9806 21.8799 2.76083 21.3736 2.63466 20.2091C2.50344 18.9978 2.5 17.3992 2.5 14.9999C2.5 12.6007 2.50344 11.002 2.63466 9.79079C2.76083 8.62634 2.9806 8.11999 3.21619 7.79573C3.44749 7.47738 3.72745 7.19742 4.0458 6.96612C4.37006 6.73053 4.87641 6.51075 6.04086 6.38459C7.25209 6.25337 8.85073 6.24993 11.25 6.24993Z" fill="white"/>
</g>
<defs>
<clipPath id="clip0_515_1332">
<rect width="29.2857" height="29.2857" fill="white" transform="scale(1.02439)"/>
</clipPath>
</defs>
</svg>
