<svg width="24" height="24" viewBox="0 0 24 24" fill="none" xmlns="http://www.w3.org/2000/svg">
<path d="M12.34 2.02C6.59 2.33 2 7.09 2 12.81C2 18.78 6.78 23.56 12.75 23.56C18.47 23.56 23.23 18.97 23.54 13.22C23.57 12.79 23.26 12.42 22.83 12.42C22.72 12.42 22.6 12.44 22.5 12.48C20.92 13.01 19.29 13.12 17.77 12.81C14.77 12.2 12.35 9.78 11.74 6.78C11.43 5.26 11.54 3.63 12.07 2.05C12.11 1.95 12.13 1.83 12.13 1.72C12.13 1.29 11.76 0.98 11.33 1.01C11.67 1.01 12.01 1.01 12.34 2.02Z" fill="white"/>
</svg>