<svg width="53" height="53" viewBox="0 0 53 53" fill="none" xmlns="http://www.w3.org/2000/svg">
<path d="M38.4688 13C33.8313 13 30.1875 17.3725 30.1875 22.9375C30.1875 28.5025 33.8313 32.875 38.4688 32.875C38.9656 32.875 39.6281 32.875 40.125 32.6763C37.9719 35.26 35.1562 36.85 31.8438 36.85C30.85 36.85 30.1875 37.645 30.1875 38.8375C30.1875 40.03 30.85 40.825 31.8438 40.825C40.125 40.825 46.75 32.875 46.75 22.9375C46.75 17.3725 43.1062 13 38.4688 13Z" fill="white"/>
<path d="M15.2812 13C10.6438 13 7 17.3725 7 22.9375C7 28.5025 10.6438 32.875 15.2812 32.875C15.7781 32.875 16.4406 32.875 16.9375 32.6763C14.7844 35.26 11.9688 36.85 8.65625 36.85C7.6625 36.85 7 37.645 7 38.8375C7 40.03 7.6625 40.825 8.65625 40.825C16.9375 40.825 23.5625 32.875 23.5625 22.9375C23.5625 17.3725 19.9187 13 15.2812 13Z" fill="white"/>
</svg>
